<svg xmlns="http://www.w3.org/2000/svg" fill="none" viewBox="0 0 162 88"><g clip-path="url(#clip0_701_65535)"><rect width="161.5" height="88" x=".242" fill="#1C1C1C" rx="6"/><mask id="path-3-inside-1_701_65535" fill="#fff"><path d="M0.242188 6C0.242188 2.68629 2.92848 0 6.24219 0H13.2422V88H6.24219C2.92848 88 0.242188 85.3137 0.242188 82V6Z"/></mask><path fill="#1C1C1C" d="M0.242188 6C0.242188 2.68629 2.92848 0 6.24219 0H13.2422V88H6.24219C2.92848 88 0.242188 85.3137 0.242188 82V6Z"/><path fill="#2E2E2E" d="M0.242188 0H13.2422H0.242188ZM13.2422 88H0.242188H13.2422ZM0.242188 88V0V88ZM14.2422 0V88H12.2422V0H14.2422Z" mask="url(#path-3-inside-1_701_65535)"/><mask id="path-5-inside-2_701_65535" fill="#fff"><path d="M155.742 -2.62268e-07C159.056 -1.17421e-07 161.742 2.68629 161.742 6L161.742 13L13.2422 13L13.2422 -6.49114e-06L155.742 -2.62268e-07Z"/></mask><path fill="#1C1C1C" d="M155.742 -2.62268e-07C159.056 -1.17421e-07 161.742 2.68629 161.742 6L161.742 13L13.2422 13L13.2422 -6.49114e-06L155.742 -2.62268e-07Z"/><path fill="#2E2E2E" d="M161.742 0L161.742 13L161.742 0ZM13.2422 13L13.2422 -6.49114e-06L13.2422 13ZM13.2422 -6.49114e-06L161.742 0L13.2422 -6.49114e-06ZM161.742 14L13.2422 14L13.2422 12L161.742 12L161.742 14Z" mask="url(#path-5-inside-2_701_65535)"/><rect width="86.474" height="23.5" x="44.255" y="21.5" fill="#232323" stroke="#2E2E2E" rx="2.5"/><rect width="86.474" height="23.5" x="44.255" y="51.5" fill="#232323" stroke="#2E2E2E" rx="2.5"/><rect width="19.232" height="1.5" x="52.441" y="28" fill="#A0A0A0" rx=".75"/><rect width="19.232" height="1.5" x="52.441" y="56.5" fill="#A0A0A0" rx=".75"/><rect width="19.232" height="1.5" x="77.876" y="28" fill="#EDEDED" rx=".75"/><rect width="19.232" height="1.5" x="77.876" y="56.5" fill="#EDEDED" rx=".75"/><rect width="44.047" height="1.5" x="77.876" y="33.25" fill="#EDEDED" rx=".75"/><rect width="44.047" height="1.5" x="77.876" y="61.75" fill="#EDEDED" rx=".75"/><rect width="20.5" height="3.75" x="17.992" y="4.625" fill="#3ECF8E" rx="1.875"/><rect width="20.5" height="3.75" x="43.755" y="4.625" fill="#707070" rx="1.875"/><rect width="20.5" height="3.75" x="69.005" y="4.625" fill="#707070" rx="1.875"/><rect width="20.5" height="1.5" x="101.423" y="28" fill="#FFB224" rx=".75"/><rect width="3.75" height="3.75" x="4.867" y="4.625" fill="#707070" rx="1"/><rect width="3.75" height="3.75" x="4.867" y="13.375" fill="#707070" rx="1"/><rect width="3.75" height="3.75" x="4.867" y="20.875" fill="#707070" rx="1"/><rect width="3.75" height="3.75" x="4.867" y="28.375" fill="#707070" rx="1"/><rect width="3.75" height="3.75" x="4.867" y="35.875" fill="#707070" rx="1"/><rect width="3.75" height="3.75" x="4.867" y="78.875" fill="#707070" rx="1"/></g><rect width="160.5" height="87" x=".742" y=".5" stroke="#2E2E2E" rx="5.5"/><defs><clipPath id="clip0_701_65535"><rect width="161.5" height="88" x=".242" fill="#fff" rx="6"/></clipPath></defs></svg>