<svg xmlns="http://www.w3.org/2000/svg" width="1680" height="712" fill="none" viewBox="0 0 1680 712"><g clip-path="url(#clip0_102_14286)"><rect width="518.092" height="37.392" x="1170.53" y="599.434" fill="#0F0F0F"/><rect width="518.092" height="37.392" x="1170.53" y="599.434" fill="#121212"/><rect width="266.106" height="37.392" x="1081.83" y="674.581" fill="#0F0F0F"/><rect width="266.106" height="37.392" x="1081.83" y="674.581" fill="#121212"/><rect width="354.808" height="37.392" x="1081.83" y="523.546" fill="#0F0F0F"/><rect width="354.808" height="37.392" x="1081.83" y="523.546" fill="#121212"/><rect width="251.986" height="37.392" x="1436.64" y="447.657" fill="#0F0F0F"/><rect width="251.986" height="37.392" x="1436.64" y="447.657" fill="#121212"/><rect width="88.702" height="38.089" x="1081.83" y="675.203" stroke="#242424" stroke-width=".861"/><rect width="88.702" height="38.089" x="904.428" y="408.487" stroke="#242424" stroke-width=".861"/><rect width="88.702" height="38.089" x="1259.24" y="675.203" stroke="#242424" stroke-width=".861"/><rect width="88.702" height="38.089" x="1170.53" y="675.203" stroke="#242424" stroke-width=".861"/><rect width="88.702" height="38.089" x="1081.83" y="370.398" fill="#0F0F0F"/><rect width="88.702" height="38.089" x="1081.83" y="370.398" fill="#121212"/><rect width="88.702" height="38.089" x="1081.83" y="370.398" stroke="#242424" stroke-width=".861"/><rect width="88.702" height="38.089" x="993.13" y="294.221" fill="#0F0F0F"/><rect width="88.702" height="38.089" x="993.13" y="294.221" fill="#121212"/><rect width="88.702" height="38.089" x="993.13" y="294.221" stroke="#242424" stroke-width=".861"/><rect width="88.702" height="38.089" x="1436.64" y="675.203" stroke="#242424" stroke-width=".861"/><rect width="88.702" height="38.089" x="1170.53" y="599.026" stroke="#242424" stroke-width=".861"/><rect width="88.702" height="38.089" x="1259.24" y="599.026" stroke="#242424" stroke-width=".861"/><rect width="88.702" height="38.089" x="1347.94" y="599.026" stroke="#242424" stroke-width=".861"/><rect width="88.702" height="38.089" x="1436.64" y="599.026" stroke="#242424" stroke-width=".861"/><rect width="88.702" height="38.089" x="1525.34" y="599.026" stroke="#242424" stroke-width=".861"/><rect width="88.702" height="38.089" x="1614.04" y="599.026" stroke="#242424" stroke-width=".861"/><rect width="88.702" height="38.089" x="1347.94" y="408.487" stroke="#242424" stroke-width=".861"/><rect width="88.702" height="38.089" x="1259.24" y="332.31" stroke="#242424" stroke-width=".861"/><rect width="88.702" height="38.089" x="1436.64" y="370.398" fill="#0F0F0F"/><rect width="88.702" height="38.089" x="1436.64" y="370.398" fill="#121212"/><rect width="88.702" height="38.089" x="1436.64" y="370.398" stroke="#242424" stroke-width=".861"/><rect width="88.702" height="38.089" x="1436.64" y="294.221" fill="#0F0F0F"/><rect width="88.702" height="38.089" x="1436.64" y="294.221" fill="#121212"/><rect width="88.702" height="38.089" x="1436.64" y="294.221" stroke="#242424" stroke-width=".861"/><rect width="88.702" height="38.089" x="1436.64" y="446.576" stroke="#242424" stroke-width=".861"/><rect width="88.702" height="38.089" x="1525.34" y="446.576" stroke="#242424" stroke-width=".861"/><rect width="88.702" height="38.089" x="1614.04" y="446.576" stroke="#242424" stroke-width=".861"/><rect width="88.702" height="38.089" x="1347.94" y="484.664" stroke="#242424" stroke-width=".861"/><rect width="88.702" height="38.089" x="1436.64" y="484.664" stroke="#242424" stroke-width=".861"/><rect width="88.702" height="38.089" x="1525.34" y="484.664" stroke="#242424" stroke-width=".861"/><rect width="88.702" height="38.089" x="1614.04" y="484.664" stroke="#242424" stroke-width=".861"/><rect width="88.702" height="38.089" x="460.918" y="522.849" stroke="#242424" stroke-width=".861"/><rect width="88.702" height="38.089" x="549.62" y="484.664" stroke="#242424" stroke-width=".861"/><rect width="88.702" height="38.089" x="638.322" y="522.849" fill="#0F0F0F"/><rect width="88.702" height="38.089" x="638.322" y="522.849" fill="#121212"/><rect width="88.702" height="38.089" x="638.322" y="522.849" stroke="#242424" stroke-width=".861"/><rect width="88.702" height="38.089" x="727.024" y="522.849" fill="#0F0F0F"/><rect width="88.702" height="38.089" x="727.024" y="522.849" fill="#121212"/><rect width="88.702" height="38.089" x="727.024" y="522.849" stroke="#242424" stroke-width=".861"/><rect width="88.702" height="38.089" x="904.428" y="522.849" fill="#0F0F0F"/><rect width="88.702" height="38.089" x="904.428" y="522.849" fill="#121212"/><rect width="88.702" height="38.089" x="904.428" y="522.849" stroke="#242424" stroke-width=".861"/><rect width="88.702" height="38.089" x="1081.83" y="522.849" stroke="#242424" stroke-width=".861"/><rect width="88.702" height="38.089" x="1170.53" y="522.849" stroke="#242424" stroke-width=".861"/><rect width="88.702" height="38.089" x="1259.24" y="522.849" stroke="#242424" stroke-width=".861"/><rect width="88.702" height="38.089" x="1347.94" y="522.849" stroke="#242424" stroke-width=".861"/><rect width="88.702" height="38.089" x="815.726" y="637.114" stroke="#242424" stroke-width=".861"/><rect width="88.702" height="38.089" x="1170.53" y="637.114" stroke="#242424" stroke-width=".861"/><rect width="88.702" height="38.089" x="1259.24" y="637.114" stroke="#242424" stroke-width=".861"/><rect width="88.702" height="38.089" x="1347.94" y="637.114" stroke="#242424" stroke-width=".861"/><rect width="88.702" height="38.089" x="1436.64" y="637.114" stroke="#242424" stroke-width=".861"/><rect width="88.702" height="38.089" x="815.726" y="560.937" stroke="#242424" stroke-width=".861"/><rect width="88.702" height="38.089" x="904.428" y="599.026" stroke="#242424" stroke-width=".861"/><rect width="88.702" height="38.089" x="993.13" y="560.937" stroke="#242424" stroke-width=".861"/><rect width="88.702" height="38.089" x="1081.83" y="560.937" stroke="#242424" stroke-width=".861"/><rect width="88.702" height="38.089" x="1170.53" y="560.937" stroke="#242424" stroke-width=".861"/><rect width="88.702" height="38.089" x="1259.24" y="560.937" stroke="#242424" stroke-width=".861"/><rect width="88.702" height="38.089" x="1347.94" y="560.937" stroke="#242424" stroke-width=".861"/><rect width="88.702" height="38.089" x="1436.64" y="560.937" stroke="#242424" stroke-width=".861"/><rect width="88.702" height="38.089" x="1525.34" y="560.937" stroke="#242424" stroke-width=".861"/><path stroke="url(#paint0_linear_102_14286)" stroke-width="1.291" d="M904.428 637.756L904.428 561.483" opacity=".5"/><path stroke="url(#paint1_linear_102_14286)" stroke-width="1.291" d="M815.726 599.122L815.726 522.849" opacity=".5"/><path stroke="url(#paint2_linear_102_14286)" stroke-width="1.291" d="M1436.64 539.558L1436.64 446.576" opacity=".5"/><path stroke="url(#paint3_linear_102_14286)" stroke-width="1.291" d="M1436.64 693.277L1436.64 600.295" opacity=".5"/><path stroke="url(#paint4_linear_102_14286)" stroke-width="1.291" d="M1347.94 577.743L1347.94 484.76" opacity=".5"/><path stroke="url(#paint5_linear_102_14286)" stroke-width="1.291" d="M1614.04 655.189L1614.04 562.206" opacity=".5"/></g><defs><linearGradient id="paint0_linear_102_14286" x1="903.928" x2="903.928" y1="637.756" y2="561.483" gradientUnits="userSpaceOnUse"><stop stop-color="#676C6A" stop-opacity="0"/><stop offset=".67" stop-color="#fff"/></linearGradient><linearGradient id="paint1_linear_102_14286" x1="815.226" x2="815.226" y1="599.122" y2="522.849" gradientUnits="userSpaceOnUse"><stop stop-color="#676C6A" stop-opacity="0"/><stop offset=".67" stop-color="#fff"/></linearGradient><linearGradient id="paint2_linear_102_14286" x1="1436.14" x2="1436.14" y1="539.558" y2="446.576" gradientUnits="userSpaceOnUse"><stop stop-color="#676C6A" stop-opacity="0"/><stop offset=".67" stop-color="#fff"/></linearGradient><linearGradient id="paint3_linear_102_14286" x1="1436.14" x2="1436.14" y1="693.277" y2="600.295" gradientUnits="userSpaceOnUse"><stop stop-color="#676C6A" stop-opacity="0"/><stop offset=".67" stop-color="#fff"/></linearGradient><linearGradient id="paint4_linear_102_14286" x1="1347.44" x2="1347.44" y1="577.743" y2="484.76" gradientUnits="userSpaceOnUse"><stop stop-color="#676C6A" stop-opacity="0"/><stop offset=".67" stop-color="#fff"/></linearGradient><linearGradient id="paint5_linear_102_14286" x1="1613.54" x2="1613.54" y1="655.189" y2="562.206" gradientUnits="userSpaceOnUse"><stop stop-color="#676C6A" stop-opacity="0"/><stop offset=".67" stop-color="#fff"/></linearGradient><clipPath id="clip0_102_14286"><rect width="1680" height="712" fill="#fff"/></clipPath></defs></svg>