<svg xmlns="http://www.w3.org/2000/svg" width="467" height="398" fill="none" viewBox="0 0 467 398"><g clip-path="url(#clip0_3052_32878)"><rect width="467" height="398" fill="#030A0C"/><g filter="url(#filter0_f_3052_32878)" opacity=".71"><ellipse cx="400.367" cy="347.919" fill="url(#paint0_linear_3052_32878)" rx="337.098" ry="176.771"/></g><g style="mix-blend-mode:overlay" filter="url(#filter1_f_3052_32878)"><path fill="#C57AFF" fill-opacity=".9" d="M568.756 357.478C568.756 432.556 418.019 493.418 256.649 493.418C95.2797 493.418 -87.8118 357.478 -35.5363 357.478C144.994 357.478 335.253 198.418 496.623 198.418C657.992 198.418 568.756 282.4 568.756 357.478Z"/></g><circle cx="318.51" cy="225.717" r="1.636" fill="#CACBDC" fill-opacity=".15" transform="rotate(-5.00418 318.51 225.717)"/><circle cx="285.131" cy="104.869" r="1.636" fill="#CACBDC" fill-opacity=".15" transform="rotate(-5.00418 285.131 104.869)"/><circle cx="290.163" cy="132.358" r="1.636" fill="#CACBDC" fill-opacity=".15" transform="rotate(-5.00418 290.163 132.358)"/><circle cx="331.155" cy="325.748" r="1.636" fill="#CACBDC" fill-opacity=".15" transform="rotate(-5.00418 331.155 325.748)"/><circle cx="367.084" cy="309.303" r="1.636" fill="#CACBDC" fill-opacity=".15" transform="rotate(-5.00418 367.084 309.303)"/><circle cx="331.819" cy="192.002" r="1.636" fill="#CACBDC" fill-opacity=".15" transform="rotate(-5.00418 331.819 192.002)"/><circle cx="334.819" cy="217.13" r=".839" fill="#CACBDC" fill-opacity=".15" transform="rotate(-5.00418 334.819 217.13)"/><g filter="url(#filter2_d_3052_32878)"><circle cx="252.757" cy="158.907" r=".839" fill="#fff" fill-opacity=".41" shape-rendering="crispEdges" transform="rotate(41.6234 252.757 158.907)"/></g><circle cx="332.034" cy="204.524" r=".839" fill="#CACBDC" fill-opacity=".15" transform="rotate(-5.00418 332.034 204.524)"/><circle cx="302.946" cy="207.912" r=".839" fill="#CACBDC" fill-opacity=".15" transform="rotate(72.8592 302.946 207.912)"/><circle cx="326.624" cy="188.583" r=".839" fill="#CACBDC" fill-opacity=".15" transform="rotate(-5.00418 326.624 188.583)"/><circle cx="317.926" cy="207.608" r=".839" fill="#CACBDC" fill-opacity=".15" transform="rotate(72.8592 317.926 207.608)"/><circle cx="353.047" cy="307.647" r=".839" fill="#CACBDC" fill-opacity=".15" transform="rotate(72.8592 353.047 307.647)"/><circle cx="388.024" cy="273.776" r=".839" fill="#CACBDC" fill-opacity=".15" transform="rotate(72.8592 388.024 273.776)"/><circle cx="426.465" cy="337.74" r=".839" fill="#CACBDC" fill-opacity=".15" transform="rotate(72.8592 426.465 337.74)"/><circle cx="352.489" cy="364.76" r=".839" fill="#CACBDC" fill-opacity=".15" transform="rotate(72.8592 352.489 364.76)"/><g filter="url(#filter3_d_3052_32878)"><circle cx="332.653" cy="163.314" r=".839" fill="#fff" fill-opacity=".41" shape-rendering="crispEdges" transform="rotate(-36.24 332.653 163.314)"/></g><g filter="url(#filter4_d_3052_32878)"><circle cx="305.38" cy="188.993" r=".839" fill="#fff" fill-opacity=".41" shape-rendering="crispEdges" transform="rotate(-36.24 305.38 188.993)"/></g><g filter="url(#filter5_d_3052_32878)"><circle cx="385.669" cy="330.314" r=".839" fill="#fff" fill-opacity=".41" shape-rendering="crispEdges" transform="rotate(-36.24 385.669 330.314)"/></g><g filter="url(#filter6_f_3052_32878)"><path fill="url(#paint1_linear_3052_32878)" d="M232.868 143.855L284.822 235.418H180.914L232.868 143.855Z"/></g><g filter="url(#filter7_d_3052_32878)"><path fill="#E2BBE6" d="M232.868 148.844L280.615 232.992H185.121L232.868 148.844Z"/></g><g opacity=".5"><path stroke="url(#paint2_linear_3052_32878)" stroke-linejoin="bevel" d="M233.869 121.297L305.39 247.344H162.348L233.869 121.297Z"/><path stroke="url(#paint3_linear_3052_32878)" stroke-linejoin="bevel" d="M242.337 74.1255L388.028 279.951L150.768 309.083L242.337 74.1255Z"/><path stroke="url(#paint4_linear_3052_32878)" stroke-linejoin="bevel" d="M239.396 30.02L478.884 298.092L153.794 379.146L239.396 30.02Z"/><path stroke="url(#paint5_linear_3052_32878)" stroke-linejoin="bevel" d="M225.678 -8.95444L575.266 300.356L172.854 454.827L225.678 -8.95444Z"/><path stroke="url(#paint6_linear_3052_32878)" stroke-linejoin="bevel" d="M202.144 -40.8521L674.272 285.777L208.921 533.208L202.144 -40.8521Z"/><path stroke="url(#paint7_linear_3052_32878)" stroke-linejoin="bevel" d="M170.062 -63.9035L772.859 253.86L262.493 611.222L170.062 -63.9035Z"/><path stroke="url(#paint8_linear_3052_32878)" stroke-linejoin="bevel" d="M130.988 -76.5388L867.926 204.617L333.574 685.75L130.988 -76.5388Z"/><path stroke="url(#paint9_linear_3052_32878)" stroke-linejoin="bevel" d="M86.7206 -77.4618L956.373 138.543L421.657 753.663L86.7206 -77.4618Z"/><path stroke="url(#paint10_linear_3052_32878)" stroke-linejoin="bevel" d="M39.2706 -65.6512L1035.19 56.6488L525.745 811.937L39.2706 -65.6512Z"/><path stroke="url(#paint11_linear_3052_32878)" stroke-linejoin="bevel" d="M-9.19961 -40.4132L1101.53 -39.5826L644.345 857.698L-9.19961 -40.4132Z"/><path stroke="url(#paint12_linear_3052_32878)" stroke-linejoin="bevel" d="M-56.4081 -1.40385L1152.77 -148.215L775.511 888.305L-56.4081 -1.40385Z"/><path stroke="url(#paint13_linear_3052_32878)" stroke-linejoin="bevel" d="M-100.008 51.3691L1186.61 -266.884L916.88 901.426L-100.008 51.3691Z"/><path stroke="url(#paint14_linear_3052_32878)" stroke-linejoin="bevel" d="M-137.656 117.523L1201.07 -392.859L1065.71 895.088L-137.656 117.523Z"/><path stroke="url(#paint15_linear_3052_32878)" stroke-linejoin="bevel" d="M-167.049 196.313L1194.65 -523.084L1218.93 867.746L-167.049 196.313Z"/><path stroke="url(#paint16_linear_3052_32878)" stroke-linejoin="bevel" d="M-186.001 286.618L1166.26 -654.259L1373.22 818.311L-186.001 286.618Z"/><path stroke="url(#paint17_linear_3052_32878)" stroke-linejoin="bevel" d="M-192.474 386.982L1115.35 -782.893L1525.07 746.208L-192.474 386.982Z"/><path stroke="url(#paint18_linear_3052_32878)" stroke-linejoin="bevel" d="M-184.642 495.627L1041.89 -905.379L1670.87 651.402L-184.642 495.627Z"/><path stroke="url(#paint19_linear_3052_32878)" stroke-linejoin="bevel" d="M-160.942 610.481L946.401 -1018.08L1806.96 534.405L-160.942 610.481Z"/><path stroke="url(#paint20_linear_3052_32878)" stroke-linejoin="bevel" d="M-120.107 729.211L829.962 -1117.42L1929.73 396.281L-120.107 729.211Z"/></g><path fill="url(#paint21_radial_3052_32878)" d="M238.978 30.7407L257.017 -2.67337V-7.29688H7.69141V401.845H321.457L285.364 363.377L253.232 318.799L230.83 278.973L216.235 243.107L205.148 190.27V171.714L238.978 30.7407Z"/><g filter="url(#filter8_f_3052_32878)"><ellipse cx="233.501" cy="28.084" fill="#0C0B18" fill-opacity=".65" rx="364.321" ry="139.396"/></g></g><defs><filter id="filter0_f_3052_32878" width="1326.64" height="1005.98" x="-262.95" y="-155.072" color-interpolation-filters="sRGB" filterUnits="userSpaceOnUse"><feFlood flood-opacity="0" result="BackgroundImageFix"/><feBlend in="SourceGraphic" in2="BackgroundImageFix" mode="normal" result="shape"/><feGaussianBlur result="effect1_foregroundBlur_3052_32878" stdDeviation="163.11"/></filter><filter id="filter1_f_3052_32878" width="966" height="623" x="-208.633" y="34.418" color-interpolation-filters="sRGB" filterUnits="userSpaceOnUse"><feFlood flood-opacity="0" result="BackgroundImageFix"/><feBlend in="SourceGraphic" in2="BackgroundImageFix" mode="normal" result="shape"/><feGaussianBlur result="effect1_foregroundBlur_3052_32878" stdDeviation="82"/></filter><filter id="filter2_d_3052_32878" width="5.023" height="5.023" x="250.247" y="156.395" color-interpolation-filters="sRGB" filterUnits="userSpaceOnUse"><feFlood flood-opacity="0" result="BackgroundImageFix"/><feColorMatrix in="SourceAlpha" result="hardAlpha" type="matrix" values="0 0 0 0 0 0 0 0 0 0 0 0 0 0 0 0 0 0 127 0"/><feOffset/><feGaussianBlur stdDeviation=".836"/><feComposite in2="hardAlpha" operator="out"/><feColorMatrix type="matrix" values="0 0 0 0 1 0 0 0 0 1 0 0 0 0 1 0 0 0 0.52 0"/><feBlend in2="BackgroundImageFix" mode="normal" result="effect1_dropShadow_3052_32878"/><feBlend in="SourceGraphic" in2="effect1_dropShadow_3052_32878" mode="normal" result="shape"/></filter><filter id="filter3_d_3052_32878" width="5.023" height="5.023" x="330.141" y="160.801" color-interpolation-filters="sRGB" filterUnits="userSpaceOnUse"><feFlood flood-opacity="0" result="BackgroundImageFix"/><feColorMatrix in="SourceAlpha" result="hardAlpha" type="matrix" values="0 0 0 0 0 0 0 0 0 0 0 0 0 0 0 0 0 0 127 0"/><feOffset/><feGaussianBlur stdDeviation=".836"/><feComposite in2="hardAlpha" operator="out"/><feColorMatrix type="matrix" values="0 0 0 0 1 0 0 0 0 1 0 0 0 0 1 0 0 0 0.52 0"/><feBlend in2="BackgroundImageFix" mode="normal" result="effect1_dropShadow_3052_32878"/><feBlend in="SourceGraphic" in2="effect1_dropShadow_3052_32878" mode="normal" result="shape"/></filter><filter id="filter4_d_3052_32878" width="5.023" height="5.023" x="302.868" y="186.481" color-interpolation-filters="sRGB" filterUnits="userSpaceOnUse"><feFlood flood-opacity="0" result="BackgroundImageFix"/><feColorMatrix in="SourceAlpha" result="hardAlpha" type="matrix" values="0 0 0 0 0 0 0 0 0 0 0 0 0 0 0 0 0 0 127 0"/><feOffset/><feGaussianBlur stdDeviation=".836"/><feComposite in2="hardAlpha" operator="out"/><feColorMatrix type="matrix" values="0 0 0 0 1 0 0 0 0 1 0 0 0 0 1 0 0 0 0.52 0"/><feBlend in2="BackgroundImageFix" mode="normal" result="effect1_dropShadow_3052_32878"/><feBlend in="SourceGraphic" in2="effect1_dropShadow_3052_32878" mode="normal" result="shape"/></filter><filter id="filter5_d_3052_32878" width="5.023" height="5.023" x="383.157" y="327.801" color-interpolation-filters="sRGB" filterUnits="userSpaceOnUse"><feFlood flood-opacity="0" result="BackgroundImageFix"/><feColorMatrix in="SourceAlpha" result="hardAlpha" type="matrix" values="0 0 0 0 0 0 0 0 0 0 0 0 0 0 0 0 0 0 127 0"/><feOffset/><feGaussianBlur stdDeviation=".836"/><feComposite in2="hardAlpha" operator="out"/><feColorMatrix type="matrix" values="0 0 0 0 1 0 0 0 0 1 0 0 0 0 1 0 0 0 0.52 0"/><feBlend in2="BackgroundImageFix" mode="normal" result="effect1_dropShadow_3052_32878"/><feBlend in="SourceGraphic" in2="effect1_dropShadow_3052_32878" mode="normal" result="shape"/></filter><filter id="filter6_f_3052_32878" width="113.906" height="101.562" x="175.914" y="138.855" color-interpolation-filters="sRGB" filterUnits="userSpaceOnUse"><feFlood flood-opacity="0" result="BackgroundImageFix"/><feBlend in="SourceGraphic" in2="BackgroundImageFix" mode="normal" result="shape"/><feGaussianBlur result="effect1_foregroundBlur_3052_32878" stdDeviation="2.5"/></filter><filter id="filter7_d_3052_32878" width="141.576" height="130.228" x="162.081" y="125.804" color-interpolation-filters="sRGB" filterUnits="userSpaceOnUse"><feFlood flood-opacity="0" result="BackgroundImageFix"/><feColorMatrix in="SourceAlpha" result="hardAlpha" type="matrix" values="0 0 0 0 0 0 0 0 0 0 0 0 0 0 0 0 0 0 127 0"/><feOffset/><feGaussianBlur stdDeviation="11.52"/><feComposite in2="hardAlpha" operator="out"/><feColorMatrix type="matrix" values="0 0 0 0 0.184314 0 0 0 0 0.0509804 0 0 0 0 0.356863 0 0 0 1 0"/><feBlend in2="BackgroundImageFix" mode="normal" result="effect1_dropShadow_3052_32878"/><feBlend in="SourceGraphic" in2="effect1_dropShadow_3052_32878" mode="normal" result="shape"/></filter><filter id="filter8_f_3052_32878" width="912.641" height="462.793" x="-222.82" y="-203.312" color-interpolation-filters="sRGB" filterUnits="userSpaceOnUse"><feFlood flood-opacity="0" result="BackgroundImageFix"/><feBlend in="SourceGraphic" in2="BackgroundImageFix" mode="normal" result="shape"/><feGaussianBlur result="effect1_foregroundBlur_3052_32878" stdDeviation="46"/></filter><linearGradient id="paint0_linear_3052_32878" x1="400.367" x2="400.367" y1="171.148" y2="524.69" gradientUnits="userSpaceOnUse"><stop stop-color="#6F13A4"/><stop offset="1" stop-color="#6F13A4" stop-opacity="0"/></linearGradient><linearGradient id="paint1_linear_3052_32878" x1="232.868" x2="232.868" y1="143.855" y2="235.418" gradientUnits="userSpaceOnUse"><stop stop-color="#EAE0FF"/><stop offset="1" stop-color="#FFC1FD" stop-opacity=".74"/></linearGradient><linearGradient id="paint2_linear_3052_32878" x1="204.66" x2="236.424" y1="198.724" y2="205.946" gradientUnits="userSpaceOnUse"><stop stop-color="#989BC7" stop-opacity=".69"/><stop offset="1" stop-color="#fff" stop-opacity=".25"/></linearGradient><linearGradient id="paint3_linear_3052_32878" x1="210.513" x2="264.861" y1="215.455" y2="220.373" gradientUnits="userSpaceOnUse"><stop stop-color="#989BC7" stop-opacity=".69"/><stop offset="1" stop-color="#fff" stop-opacity=".25"/></linearGradient><linearGradient id="paint4_linear_3052_32878" x1="220.279" x2="296.787" y1="236.135" y2="233.353" gradientUnits="userSpaceOnUse"><stop stop-color="#989BC7" stop-opacity=".69"/><stop offset="1" stop-color="#fff" stop-opacity=".25"/></linearGradient><linearGradient id="paint5_linear_3052_32878" x1="234.656" x2="331.926" y1="260.033" y2="244.246" gradientUnits="userSpaceOnUse"><stop stop-color="#989BC7" stop-opacity=".69"/><stop offset="1" stop-color="#fff" stop-opacity=".25"/></linearGradient><linearGradient id="paint6_linear_3052_32878" x1="254.212" x2="369.893" y1="286.307" y2="252.471" gradientUnits="userSpaceOnUse"><stop stop-color="#989BC7" stop-opacity=".69"/><stop offset="1" stop-color="#fff" stop-opacity=".25"/></linearGradient><linearGradient id="paint7_linear_3052_32878" x1="279.379" x2="410.207" y1="314.02" y2="257.509" gradientUnits="userSpaceOnUse"><stop stop-color="#989BC7" stop-opacity=".69"/><stop offset="1" stop-color="#fff" stop-opacity=".25"/></linearGradient><linearGradient id="paint8_linear_3052_32878" x1="310.44" x2="452.313" y1="342.186" y2="258.935" gradientUnits="userSpaceOnUse"><stop stop-color="#989BC7" stop-opacity=".69"/><stop offset="1" stop-color="#fff" stop-opacity=".25"/></linearGradient><linearGradient id="paint9_linear_3052_32878" x1="347.509" x2="495.579" y1="369.754" y2="256.398" gradientUnits="userSpaceOnUse"><stop stop-color="#989BC7" stop-opacity=".69"/><stop offset="1" stop-color="#fff" stop-opacity=".25"/></linearGradient><linearGradient id="paint10_linear_3052_32878" x1="390.544" x2="539.328" y1="395.676" y2="249.664" gradientUnits="userSpaceOnUse"><stop stop-color="#989BC7" stop-opacity=".69"/><stop offset="1" stop-color="#fff" stop-opacity=".25"/></linearGradient><linearGradient id="paint11_linear_3052_32878" x1="439.321" x2="582.834" y1="418.904" y2="238.602" gradientUnits="userSpaceOnUse"><stop stop-color="#989BC7" stop-opacity=".69"/><stop offset="1" stop-color="#fff" stop-opacity=".25"/></linearGradient><linearGradient id="paint12_linear_3052_32878" x1="493.456" x2="625.354" y1="438.418" y2="223.192" gradientUnits="userSpaceOnUse"><stop stop-color="#989BC7" stop-opacity=".69"/><stop offset="1" stop-color="#fff" stop-opacity=".25"/></linearGradient><linearGradient id="paint13_linear_3052_32878" x1="204.251" x2="324.994" y1="10.918" y2="90.004" gradientUnits="userSpaceOnUse"><stop stop-color="#A095CF" stop-opacity=".6"/><stop offset="1" stop-color="#A095CF"/></linearGradient><linearGradient id="paint14_linear_3052_32878" x1="183.519" x2="323.475" y1="34.145" y2="103.146" gradientUnits="userSpaceOnUse"><stop stop-color="#A095CF" stop-opacity=".6"/><stop offset="1" stop-color="#A095CF"/></linearGradient><linearGradient id="paint15_linear_3052_32878" x1="164.755" x2="323.108" y1="65.373" y2="120.708" gradientUnits="userSpaceOnUse"><stop stop-color="#A095CF" stop-opacity=".6"/><stop offset="1" stop-color="#A095CF"/></linearGradient><linearGradient id="paint16_linear_3052_32878" x1="149.28" x2="324.623" y1="104.419" y2="142.573" gradientUnits="userSpaceOnUse"><stop stop-color="#A095CF" stop-opacity=".6"/><stop offset="1" stop-color="#D4C9C9"/></linearGradient><linearGradient id="paint17_linear_3052_32878" x1="138.412" x2="328.746" y1="150.898" y2="168.519" gradientUnits="userSpaceOnUse"><stop stop-color="#A095CF" stop-opacity=".6"/><stop offset="1" stop-color="#D4C9C9"/></linearGradient><linearGradient id="paint18_linear_3052_32878" x1="133.41" x2="336.171" y1="204.228" y2="198.214" gradientUnits="userSpaceOnUse"><stop stop-color="#A095CF" stop-opacity=".6"/><stop offset="1" stop-color="#D4C9C9"/></linearGradient><linearGradient id="paint19_linear_3052_32878" x1="135.452" x2="347.543" y1="263.626" y2="231.214" gradientUnits="userSpaceOnUse"><stop stop-color="#A095CF" stop-opacity=".6"/><stop offset="1" stop-color="#D4C9C9"/></linearGradient><linearGradient id="paint20_linear_3052_32878" x1="145.612" x2="363.448" y1="328.117" y2="266.97" gradientUnits="userSpaceOnUse"><stop stop-color="#A095CF" stop-opacity=".6"/><stop offset="1" stop-color="#D4C9C9"/></linearGradient><radialGradient id="paint21_radial_3052_32878" cx="0" cy="0" r="1" gradientTransform="translate(282.611 189.919) rotate(166.549) scale(121.366 286.191)" gradientUnits="userSpaceOnUse"><stop stop-color="#CF6AFF"/><stop offset="1" stop-color="#734D92" stop-opacity="0"/></radialGradient><clipPath id="clip0_3052_32878"><rect width="467" height="398" fill="#fff"/></clipPath></defs></svg>