<svg xmlns="http://www.w3.org/2000/svg" width="349" height="231" fill="none" viewBox="0 0 349 231"><rect width="349" height="230" fill="#171717" transform="translate(0 0.34375)"/><path fill="#121212" d="M31.6805 44.085C31.6805 39.6667 35.2623 36.085 39.6805 36.085H309.319C313.738 36.085 317.319 39.6667 317.319 44.085V75.7213H31.6805V44.085Z"/><path stroke="#292929" stroke-width=".5" d="M31.6805 44.085C31.6805 39.6667 35.2623 36.085 39.6805 36.085H309.319C313.738 36.085 317.319 39.6667 317.319 44.085V75.7213H31.6805V44.085Z"/><rect width="23.636" height="23.636" x="39.681" y="44.085" fill="#1F1F1F" stroke="#242424" stroke-width=".739" rx="4"/><path fill="#4D4D4D" fill-rule="evenodd" d="M51.828 49.9529C50.2882 51.3311 48.2636 52.1789 46.0416 52.209C45.9609 52.6897 45.9189 53.1835 45.9189 53.6871C45.9189 57.5464 48.3854 60.8296 51.828 62.0463C55.2706 60.8296 57.7371 57.5464 57.7371 53.6871C57.7371 53.1835 57.6951 52.6897 57.6144 52.209C55.3924 52.1789 53.3679 51.3311 51.828 49.9529ZM52.5667 58.8575C52.5667 59.2655 52.236 59.5962 51.828 59.5962C51.4201 59.5962 51.0894 59.2655 51.0894 58.8575C51.0894 58.4496 51.4201 58.1189 51.828 58.1189C52.236 58.1189 52.5667 58.4496 52.5667 58.8575ZM52.5667 53.6871C52.5667 53.2791 52.236 52.9484 51.828 52.9484C51.4201 52.9484 51.0894 53.2791 51.0894 53.6871V55.903C51.0894 56.3109 51.4201 56.6416 51.828 56.6416C52.236 56.6416 52.5667 56.3109 52.5667 55.903V53.6871Z" clip-rule="evenodd"/><rect width="178.481" height="6.275" x="71.317" y="46.128" fill="#292929" rx="3.137"/><rect width="23.814" height="6.275" x="285.457" y="46.128" fill="#292929" rx="3.137"/><rect width="237.954" height="6.275" x="71.317" y="59.403" fill="#1F1F1F" rx="3.137"/><rect width="285.591" height="39.636" x="31.68" y="115.357" fill="#121212"/><rect width="285.591" height="39.636" x="31.68" y="115.357" stroke="#292929" stroke-width=".5"/><rect width="23.636" height="23.636" x="39.681" y="123.357" fill="#1F1F1F" stroke="#242424" stroke-width=".739" rx="4"/><path stroke="#4D4D4D" stroke-linecap="round" stroke-linejoin="round" stroke-width="1.4" d="M52.4435 132.098H57.3677M57.3677 132.098V137.022M57.3677 132.098L52.4435 137.022L49.9814 134.56L46.2882 138.253"/><rect width="178.481" height="6.275" x="71.317" y="125.401" fill="#292929" rx="3.137"/><rect width="23.814" height="6.275" x="285.457" y="125.401" fill="#292929" rx="3.137"/><rect width="237.954" height="6.275" x="71.317" y="138.676" fill="#1F1F1F" rx="3.137"/><path fill="#121212" d="M31.6805 154.994H317.271V186.63C317.271 191.049 313.689 194.63 309.271 194.63H39.6805C35.2623 194.63 31.6805 191.048 31.6805 186.63V154.994Z"/><path stroke="#292929" stroke-width=".5" d="M31.6805 154.994H317.271V186.63C317.271 191.049 313.689 194.63 309.271 194.63H39.6805C35.2623 194.63 31.6805 191.048 31.6805 186.63V154.994Z"/><rect width="23.636" height="23.636" x="39.681" y="162.994" fill="#1F1F1F" stroke="#242424" stroke-width=".739" rx="4"/><path stroke="#4D4D4D" stroke-linecap="round" stroke-linejoin="round" stroke-width="1.4" d="M52.4435 171.735H57.3677M57.3677 171.735V176.659M57.3677 171.735L52.4435 176.659L49.9814 174.197L46.2882 177.89"/><rect width="178.481" height="6.275" x="71.317" y="165.037" fill="#292929" rx="3.137"/><rect width="23.814" height="6.275" x="285.457" y="165.037" fill="#292929" rx="3.137"/><rect width="237.954" height="6.275" x="71.317" y="178.312" fill="#1F1F1F" rx="3.137"/><rect width="285.591" height="39.636" x="31.68" y="75.721" fill="#121212"/><rect width="285.591" height="39.636" x="31.68" y="75.721" stroke="#4D4D4D" stroke-width=".5"/><rect width="23.636" height="23.636" x="39.681" y="83.721" fill="#292929" stroke="#4D4D4D" stroke-width=".739" rx="4"/><path fill="#B4B4B4" fill-rule="evenodd" d="M51.828 89.5891C50.2882 90.9673 48.2636 91.8151 46.0416 91.8452C45.9609 92.3259 45.9189 92.8197 45.9189 93.3233C45.9189 97.1826 48.3854 100.466 51.828 101.683C55.2706 100.466 57.7371 97.1826 57.7371 93.3233C57.7371 92.8197 57.6951 92.3259 57.6144 91.8452C55.3924 91.8151 53.3679 90.9673 51.828 89.5891ZM52.5667 98.4938C52.5667 98.9017 52.236 99.2324 51.828 99.2324C51.4201 99.2324 51.0894 98.9017 51.0894 98.4938C51.0894 98.0858 51.4201 97.7551 51.828 97.7551C52.236 97.7551 52.5667 98.0858 52.5667 98.4938ZM52.5667 93.3233C52.5667 92.9154 52.236 92.5847 51.828 92.5847C51.4201 92.5847 51.0894 92.9154 51.0894 93.3233V95.5392C51.0894 95.9472 51.4201 96.2779 51.828 96.2779C52.236 96.2779 52.5667 95.9472 52.5667 95.5392V93.3233Z" clip-rule="evenodd"/><rect width="178.481" height="6.275" x="71.317" y="85.765" fill="#B4B4B4" rx="3.137"/><rect width="23.814" height="6.275" x="285.457" y="85.765" fill="#292929" rx="3.137"/><rect width="237.954" height="6.275" x="71.317" y="99.039" fill="#292929" rx="3.137"/></svg>