<svg xmlns="http://www.w3.org/2000/svg" xmlns:xlink="http://www.w3.org/1999/xlink" id="Layer_1" x="0" y="0" version="1.1" viewBox="0 0 138 137.3" xml:space="preserve" style="enable-background:new 0 0 138 137.3"><style type="text/css">.st0{fill:#01579b}.st1{fill:#40c4ff}.st2{fill:#29b6f6}.st3{fill:#fff}.st3,.st4,.st5{opacity:.2;enable-background:new}.st4{fill:#263238}.st5{fill:url(#SVGID_1_)}</style><g><path d="M29.6,108.9L6.4,85.7c-2.8-2.8-4.5-6.8-4.5-10.8c0-1.8,1-4.6,1.8-6.3l21.5-44.8L29.6,108.9z" class="st0"/><path d="M109.3,28.4L86.1,5.1c-2-2-6.3-4.5-9.8-4.5c-3.1,0-6.1,0.6-8.1,1.8l-43,21.5L109.3,28.4z" class="st1"/><polygon points="57.4 136.7 113.8 136.7 113.8 112.5 71.7 99.1 33.2 112.5" class="st1"/><path d="M25.2,96.4c0,7.2,0.9,8.9,4.5,12.5l3.6,3.6h80.6L74.4,67.8L25.2,23.9V96.4z" class="st2"/><path d="M96.8,23.9H25.2l88.6,88.7H138V57l-28.7-28.6C105.3,24.3,101.7,23.9,96.8,23.9z" class="st0"/><path d="M30.5,109.8c-3.6-3.6-4.5-7.1-4.5-13.4V24.8l-0.9-0.9v72.5C25.2,102.7,25.2,104.4,30.5,109.8l2.7,2.7l0,0 L30.5,109.8z" class="st3"/><polygon points="137.1 56.1 137.1 111.6 112.9 111.6 113.8 112.5 138 112.5 138 57" class="st4"/><path d="M109.3,28.4c-4.4-4.4-8.1-4.5-13.4-4.5H25.2l0.9,0.9h69.8C98.6,24.8,105.3,24.3,109.3,28.4L109.3,28.4z" class="st3"/><radialGradient id="SVGID_1_" cx="69.96" cy="451.117" r="68.065" gradientTransform="matrix(1 0 0 1 0 -382.4672)" gradientUnits="userSpaceOnUse"><stop offset="0" style="stop-color:#fff;stop-opacity:.1"/><stop offset="1" style="stop-color:#fff;stop-opacity:0"/></radialGradient><path d="M137.1,56.1l-27.8-27.8L86.1,5.1c-2-2-6.3-4.5-9.8-4.5c-3.1,0-6.1,0.6-8.1,1.8l-43,21.5L3.7,68.6 c-0.8,1.6-1.8,4.5-1.8,6.3c0,3.9,1.7,7.9,4.5,10.8L27.8,107c0.5,0.6,1.1,1.3,1.8,2l0.9,0.9l2.7,2.7l23.3,23.3l0.9,0.9h55.5h0.9 v-24.2H138v-0.1V57L137.1,56.1z" class="st5"/></g></svg>