<svg xmlns="http://www.w3.org/2000/svg" width="1365" height="886" fill="none" viewBox="0 0 1365 886"><mask id="mask0_648_2688" width="1365" height="886" x="0" y="0" maskUnits="userSpaceOnUse" style="mask-type:alpha"><rect width="1363.21" height="885.02" x=".813" y=".672" fill="url(#paint0_linear_648_2688)"/></mask><g mask="url(#mask0_648_2688)"><path stroke="#242424" d="M80.5547 2.35547L80.5547 885.775"/><path stroke="#242424" d="M146.555 2.35547L146.555 885.775"/><path stroke="#242424" d="M278.555 2.35547L278.555 885.775"/><path stroke="#242424" d="M689.555 2.35547L689.555 885.775"/><path stroke="#242424" d="M887.555 2.35547L887.555 885.775"/><path stroke="#242424" d="M953.555 2.35547L953.555 885.775"/><path stroke="#242424" d="M1019.55 2.35547L1019.55 885.775"/><path stroke="#242424" d="M1670.76 2.25781L0.812418 2.25782"/><path stroke="#242424" d="M1670.76 36.2578L0.812418 36.2578"/><path stroke="#242424" d="M1670.76 70.2578L0.812418 70.2578"/><path stroke="#242424" d="M1670.76 104.258L0.812418 104.258"/><path stroke="#242424" d="M1670.76 138.258L0.812418 138.258"/><path stroke="#242424" d="M1670.76 172.258L0.812418 172.258"/><path stroke="#242424" d="M1670.76 206.258L0.812418 206.258"/><path stroke="#242424" d="M1670.76 240.258L0.812418 240.258"/><path stroke="#242424" d="M1670.76 274.258L0.812418 274.258"/><path stroke="#242424" d="M1670.76 308.258L0.812418 308.258"/><path stroke="#242424" d="M1670.76 342.258L0.812418 342.258"/><path stroke="#242424" d="M1670.76 376.258L0.812418 376.258"/><path stroke="#242424" d="M1670.76 410.258L0.812418 410.258"/><path stroke="#242424" d="M1670.76 444.258L0.812418 444.258"/><path stroke="#242424" d="M1670.76 478.258L0.812418 478.258"/><path stroke="#242424" d="M1670.76 512.258L0.812418 512.258"/><path stroke="#242424" d="M1670.76 546.258L0.812418 546.258"/><path stroke="#242424" d="M1670.76 580.258L0.812418 580.258"/><path stroke="#242424" d="M1670.76 614.258L0.812418 614.258"/><path stroke="#242424" d="M1670.76 648.258L0.812418 648.258"/><path stroke="#242424" d="M1670.76 682.258L0.812418 682.258"/><path stroke="#242424" d="M1670.76 716.258L0.812418 716.258"/><path stroke="#242424" d="M1670.76 750.258L0.812418 750.258"/><path stroke="#242424" d="M1670.76 784.258L0.812418 784.258"/><path stroke="#242424" d="M1670.76 818.258L0.812418 818.258"/><path stroke="#242424" d="M1670.76 852.258L0.812418 852.258"/></g><defs><linearGradient id="paint0_linear_648_2688" x1="69.601" x2="1299.42" y1="443.182" y2="443.182" gradientUnits="userSpaceOnUse"><stop stop-color="#0F0F0F" stop-opacity="0"/><stop offset=".535" stop-color="#0F0F0F"/><stop offset="1" stop-color="#0F0F0F" stop-opacity="0"/></linearGradient></defs></svg>