<svg xmlns="http://www.w3.org/2000/svg" fill="none" viewBox="0 0 163 88"><g clip-path="url(#clip0_701_65549)"><rect width="161.5" height="88" x=".742" fill="#121212" rx="6"/><mask id="path-3-inside-1_701_65549" fill="#fff"><path d="M0.742188 6C0.742188 2.68629 3.42848 0 6.74219 0H13.7422V88H6.74219C3.42848 88 0.742188 85.3137 0.742188 82V6Z"/></mask><path fill="#121212" d="M0.742188 6C0.742188 2.68629 3.42848 0 6.74219 0H13.7422V88H6.74219C3.42848 88 0.742188 85.3137 0.742188 82V6Z"/><path fill="#292929" d="M0.742188 0H13.7422H0.742188ZM13.7422 88H0.742188H13.7422ZM0.742188 88V0V88ZM14.7422 0V88H12.7422V0H14.7422Z" mask="url(#path-3-inside-1_701_65549)"/><mask id="path-5-inside-2_701_65549" fill="#fff"><path d="M156.242 -2.62268e-07C159.556 -1.17421e-07 162.242 2.68629 162.242 6L162.242 13L13.7422 13L13.7422 -6.49114e-06L156.242 -2.62268e-07Z"/></mask><path fill="#121212" d="M156.242 -2.62268e-07C159.556 -1.17421e-07 162.242 2.68629 162.242 6L162.242 13L13.7422 13L13.7422 -6.49114e-06L156.242 -2.62268e-07Z"/><path fill="#292929" d="M162.242 0L162.242 13L162.242 0ZM13.7422 13L13.7422 -6.49114e-06L13.7422 13ZM13.7422 -6.49114e-06L162.242 0L13.7422 -6.49114e-06ZM162.242 14L13.7422 14L13.7422 12L162.242 12L162.242 14Z" mask="url(#path-5-inside-2_701_65549)"/><rect width="86.474" height="23.5" x="44.755" y="21.5" fill="#1F1F1F" stroke="#292929" rx="2.5"/><rect width="86.474" height="23.5" x="44.755" y="51.5" fill="#1F1F1F" stroke="#292929" rx="2.5"/><rect width="19.232" height="1.5" x="52.941" y="28" fill="#B4B4B4" rx=".75"/><rect width="19.232" height="1.5" x="52.941" y="56.5" fill="#B4B4B4" rx=".75"/><rect width="19.232" height="1.5" x="78.376" y="28" fill="#FAFAFA" rx=".75"/><rect width="19.232" height="1.5" x="78.376" y="56.5" fill="#FAFAFA" rx=".75"/><rect width="44.047" height="1.5" x="78.376" y="33.25" fill="#FAFAFA" rx=".75"/><rect width="44.047" height="1.5" x="78.376" y="61.75" fill="#FAFAFA" rx=".75"/><rect width="20.5" height="3.75" x="18.492" y="4.625" fill="#3ECF8E" rx="1.875"/><rect width="20.5" height="3.75" x="44.255" y="4.625" fill="#4D4D4D" rx="1.875"/><rect width="20.5" height="3.75" x="69.505" y="4.625" fill="#4D4D4D" rx="1.875"/><rect width="20.5" height="1.5" x="101.923" y="28" fill="#DB8E00" rx=".75"/><rect width="3.75" height="3.75" x="5.367" y="4.625" fill="#4D4D4D" rx="1"/><rect width="3.75" height="3.75" x="5.367" y="13.375" fill="#4D4D4D" rx="1"/><rect width="3.75" height="3.75" x="5.367" y="20.875" fill="#4D4D4D" rx="1"/><rect width="3.75" height="3.75" x="5.367" y="28.375" fill="#4D4D4D" rx="1"/><rect width="3.75" height="3.75" x="5.367" y="35.875" fill="#4D4D4D" rx="1"/><rect width="3.75" height="3.75" x="5.367" y="78.875" fill="#4D4D4D" rx="1"/></g><rect width="160.5" height="87" x="1.242" y=".5" stroke="#292929" rx="5.5"/><defs><clipPath id="clip0_701_65549"><rect width="161.5" height="88" x=".742" fill="#fff" rx="6"/></clipPath></defs></svg>