<svg xmlns="http://www.w3.org/2000/svg" fill="none" viewBox="0 0 163 88"><g clip-path="url(#clip0_742_69895)"><rect width="161.5" height="88" x=".742" fill="#1C1C1C" rx="6"/><mask id="path-3-inside-1_742_69895" fill="#fff"><path d="M0.742188 6C0.742188 2.68629 3.42848 0 6.74219 0H13.7422V88H6.74219C3.42848 88 0.742188 85.3137 0.742188 82V6Z"/></mask><path fill="#1C1C1C" d="M0.742188 6C0.742188 2.68629 3.42848 0 6.74219 0H13.7422V88H6.74219C3.42848 88 0.742188 85.3137 0.742188 82V6Z"/><path fill="#2E2E2E" d="M0.742188 0H13.7422H0.742188ZM13.7422 88H0.742188H13.7422ZM0.742188 88V0V88ZM14.7422 0V88H12.7422V0H14.7422Z" mask="url(#path-3-inside-1_742_69895)"/><mask id="path-5-inside-2_742_69895" fill="#fff"><path d="M156.242 -2.62268e-07C159.556 -1.17421e-07 162.242 2.68629 162.242 6L162.242 13L13.7422 13L13.7422 -6.49114e-06L156.242 -2.62268e-07Z"/></mask><path fill="#1C1C1C" d="M156.242 -2.62268e-07C159.556 -1.17421e-07 162.242 2.68629 162.242 6L162.242 13L13.7422 13L13.7422 -6.49114e-06L156.242 -2.62268e-07Z"/><path fill="#2E2E2E" d="M162.242 0L162.242 13L162.242 0ZM13.7422 13L13.7422 -6.49114e-06L13.7422 13ZM13.7422 -6.49114e-06L162.242 0L13.7422 -6.49114e-06ZM162.242 14L13.7422 14L13.7422 12L162.242 12L162.242 14Z" mask="url(#path-5-inside-2_742_69895)"/><rect width="86.474" height="23.5" x="44.755" y="21.5" fill="#232323" stroke="#2E2E2E" rx="2.5"/><rect width="86.474" height="23.5" x="44.755" y="51.5" fill="#232323" stroke="#2E2E2E" rx="2.5"/><rect width="19.232" height="1.5" x="52.941" y="28" fill="#A0A0A0" rx=".75"/><rect width="19.232" height="1.5" x="52.941" y="56.5" fill="#A0A0A0" rx=".75"/><rect width="19.232" height="1.5" x="78.376" y="28" fill="#EDEDED" rx=".75"/><rect width="19.232" height="1.5" x="78.376" y="56.5" fill="#EDEDED" rx=".75"/><rect width="44.047" height="1.5" x="78.376" y="33.25" fill="#EDEDED" rx=".75"/><rect width="44.047" height="1.5" x="78.376" y="61.75" fill="#EDEDED" rx=".75"/><rect width="20.5" height="3.75" x="18.492" y="4.625" fill="#3ECF8E" rx="1.875"/><rect width="20.5" height="3.75" x="44.255" y="4.625" fill="#707070" rx="1.875"/><rect width="20.5" height="3.75" x="69.505" y="4.625" fill="#707070" rx="1.875"/><rect width="20.5" height="1.5" x="101.923" y="28" fill="#FFB224" rx=".75"/><rect width="3.75" height="3.75" x="5.367" y="4.625" fill="#707070" rx="1"/><rect width="3.75" height="3.75" x="5.367" y="13.375" fill="#707070" rx="1"/><rect width="3.75" height="3.75" x="5.367" y="20.875" fill="#707070" rx="1"/><rect width="3.75" height="3.75" x="5.367" y="28.375" fill="#707070" rx="1"/><rect width="3.75" height="3.75" x="5.367" y="35.875" fill="#707070" rx="1"/><rect width="3.75" height="3.75" x="5.367" y="78.875" fill="#707070" rx="1"/><mask id="mask0_742_69895" width="131" height="88" x="32" y="0" maskUnits="userSpaceOnUse" style="mask-type:alpha"><path fill="#000" d="M130.534 2.34842e-05L32.4507 88H162.131V0L130.534 2.34842e-05Z"/></mask><g mask="url(#mask0_742_69895)"><rect width="161.5" height="88" x=".742" fill="#F8F9FA"/><mask id="path-27-inside-3_742_69895" fill="#fff"><path d="M156.242 -2.62268e-07C159.556 -1.17421e-07 162.242 2.68629 162.242 6L162.242 13L13.7422 13L13.7422 -6.49114e-06L156.242 -2.62268e-07Z"/></mask><path fill="#F8F9FA" d="M156.242 -2.62268e-07C159.556 -1.17421e-07 162.242 2.68629 162.242 6L162.242 13L13.7422 13L13.7422 -6.49114e-06L156.242 -2.62268e-07Z"/><path fill="#E6E8EB" d="M162.242 0L162.242 13L162.242 0ZM13.7422 13L13.7422 -6.49114e-06L13.7422 13ZM13.7422 -6.49114e-06L162.242 0L13.7422 -6.49114e-06ZM162.242 14L13.7422 14L13.7422 12L162.242 12L162.242 14Z" mask="url(#path-27-inside-3_742_69895)"/><rect width="86.474" height="23.5" x="44.755" y="21.5" fill="#FCFCFC" stroke="#E6E8EB" rx="2.5"/><rect width="86.474" height="23.5" x="44.755" y="51.5" fill="#FCFCFC" stroke="#E6E8EB" rx="2.5"/><rect width="19.232" height="1.5" x="52.941" y="28" fill="#525252" rx=".75"/><rect width="19.232" height="1.5" x="52.941" y="56.5" fill="#525252" rx=".75"/><rect width="19.232" height="1.5" x="78.376" y="28" fill="#11181C" rx=".75"/><rect width="19.232" height="1.5" x="78.376" y="56.5" fill="#11181C" rx=".75"/><rect width="44.047" height="1.5" x="78.376" y="33.25" fill="#11181C" rx=".75"/><rect width="44.047" height="1.5" x="78.376" y="61.75" fill="#11181C" rx=".75"/><rect width="20.5" height="3.75" x="18.492" y="4.625" fill="#3FCF8E" rx="1.875"/><rect width="20.5" height="3.75" x="44.255" y="4.625" fill="#B2B2B2" rx="1.875"/><rect width="20.5" height="3.75" x="69.505" y="4.625" fill="#B2B2B2" rx="1.875"/><rect width="20.5" height="1.5" x="101.923" y="28" fill="#FFB224" rx=".75"/></g></g><rect width="160.5" height="87" x="1.242" y=".5" stroke="#2E2E2E" rx="5.5"/><defs><clipPath id="clip0_742_69895"><rect width="161.5" height="88" x=".742" fill="#fff" rx="6"/></clipPath></defs></svg>