<svg xmlns="http://www.w3.org/2000/svg" width="2958" height="1032" fill="none" viewBox="0 0 2958 1032"><g clip-path="url(#clip0_1806_105858)"><g filter="url(#filter0_f_1806_105858)"><path stroke="#EA77FF" stroke-width="23.705" d="M2463.31 779.091C2207.47 422.065 1515.62 -53.2887 747.7 422.066"/></g><mask id="mask0_1806_105858" width="1898" height="555" x="626" y="177" maskUnits="userSpaceOnUse" style="mask-type:alpha"><path fill="#F1EDFF" d="M1602.56 181.008C2045.53 212.549 2401.41 561.424 2523.98 731.919C2523.98 731.919 2111.03 500.111 1559.2 366.111C1007.37 232.111 626.815 455.187 626.815 455.187C767.493 350.653 1159.59 149.468 1602.56 181.008Z"/></mask><g mask="url(#mask0_1806_105858)"><g filter="url(#filter1_f_1806_105858)"><path fill="url(#paint0_linear_1806_105858)" d="M1344.89 241.838C1677.19 155.622 2459.74 286.61 2116.46 191.181C2095.32 109.678 1482.43 65.5 1307.61 110.857C1132.79 156.214 851.833 280.527 872.979 362.03C928.709 650.834 1170.07 287.195 1344.89 241.838Z"/></g><g filter="url(#filter2_f_1806_105858)"><path fill="#1D0874" d="M2656.55 1270.21C2516.85 1464.86 2103.83 1407.49 1734.04 1142.09C1364.24 876.684 854.116 580.276 993.816 385.632C1272.64 69.8052 1870.14 171.814 2239.93 437.219C2609.72 702.624 2796.25 1075.57 2656.55 1270.21Z"/></g><g filter="url(#filter3_f_1806_105858)"><ellipse cx="2348.57" cy="583.839" fill="#A765F2" rx="579.661" ry="91.968" transform="rotate(35.6676 2348.57 583.839)"/></g><g filter="url(#filter4_f_1806_105858)"><path stroke="#DC24FF" stroke-width="70.283" d="M2261.68 379.78C2133.99 295.938 1640.23 55.786 926.485 235.999"/></g><g filter="url(#filter5_f_1806_105858)"><path stroke="#DC24FF" stroke-width="70.283" d="M2436.67 754.038C2431.98 699.88 2390.35 508.967 2182.76 349.157"/></g><g filter="url(#filter6_f_1806_105858)"><path stroke="#EBBCF3" stroke-width="23.705" d="M2426.8 662.862C2148.12 323.364 1426.62 -105.644 691.486 418.998"/></g><g filter="url(#filter7_f_1806_105858)"><path stroke="url(#paint1_linear_1806_105858)" stroke-width="43.667" d="M2096.56 400.445C2013.1 336.305 1686.07 146.042 1186.39 233.404"/></g><g filter="url(#filter8_f_1806_105858)"><path stroke="url(#paint2_linear_1806_105858)" stroke-width="37.013" d="M2109.4 392.933C2025.94 328.793 1698.91 138.53 1199.23 225.892"/></g></g><mask id="mask1_1806_105858" width="2704" height="793" x="151" y="294" maskUnits="userSpaceOnUse" style="mask-type:alpha"><path fill="#030103" d="M670.254 420.522C309.411 631.564 173.841 952.334 151.162 1086.34L2854.12 1032.66C2609.15 693.078 1846.9 351.322 1429.73 305.693C1016.25 260.468 785.213 360.601 670.254 420.522Z"/></mask><g mask="url(#mask1_1806_105858)"><g filter="url(#filter9_f_1806_105858)"><ellipse cx="1464.1" cy="1177.18" fill="#000" rx="1058.14" ry="1022.5" transform="rotate(35.6676 1464.1 1177.18)"/></g><g filter="url(#filter10_f_1806_105858)"><ellipse cx="1672.6" cy="839.688" fill="#000" rx="847.101" ry="464.348" transform="rotate(35.6676 1672.6 839.688)"/></g><path fill="url(#paint3_radial_1806_105858)" d="M670.253 420.525C309.41 631.567 173.841 952.336 151.161 1086.34L2869.33 1049.56C2614.48 787.877 1844.34 370.633 1429.73 305.696C1098.05 253.747 785.213 360.604 670.253 420.525Z"/><g filter="url(#filter11_f_1806_105858)"><circle cx="1683.74" cy="1074.49" r="731.206" fill="#121212"/></g><g filter="url(#filter12_f_1806_105858)"><path fill="url(#paint4_linear_1806_105858)" d="M412.576 733.363C257.047 1039.42 131.77 1725.38 112.242 1369.62C37.1766 1331.47 103.667 745.18 185.488 584.17C267.309 423.16 449.026 175.433 524.092 213.579C794.204 329.996 494.397 572.353 412.576 733.363Z"/></g><g filter="url(#filter13_f_1806_105858)"><path stroke="#55008C" stroke-width="13.308" d="M180.198 1196.61C182.867 1111.64 189.252 892.826 413.785 620.052"/></g><path stroke="url(#paint5_linear_1806_105858)" stroke-width="3.743" d="M142.503 1102.79C164.365 968.651 297.974 647.06 657.522 433.82"/></g><mask id="mask2_1806_105858" width="2366" height="764" x="522" y="293" maskUnits="userSpaceOnUse" style="mask-type:alpha"><path fill="#3913B3" d="M1730.04 448.514C2104.59 553.042 2382.76 858.647 2424.99 1056.31L2887.91 1056.31C2590.56 608.607 1904.23 372.24 1481.95 311.693C1060.61 251.28 821.763 353.329 728.407 393.216L727.782 393.483C653.453 425.24 559.74 492.905 522.174 522.768C722.604 406.906 1215.79 305.002 1730.04 448.514Z"/></mask><g mask="url(#mask2_1806_105858)"><path fill="#3913B3" d="M1730.1 449.342C2104.65 553.87 2383.52 939.681 2428.38 1061.38L2891.29 1032.66C2610.84 583.264 1904.29 373.069 1482.01 312.521C1060.67 252.108 821.825 354.158 728.47 394.044L727.845 394.311C653.515 426.068 559.802 493.734 522.237 523.597C722.666 407.735 1215.86 305.831 1730.1 449.342Z"/><g filter="url(#filter14_f_1806_105858)"><path stroke="url(#paint6_linear_1806_105858)" stroke-width="7.902" d="M2383.22 938.696C2338.36 816.994 2104.6 553.04 1730.04 448.513C1215.8 305.001 722.607 406.905 522.178 522.767"/></g><g filter="url(#filter15_f_1806_105858)"><path stroke="#000" stroke-width="37.013" d="M744.871 373.999C837.783 334.302 1076.76 231.66 1499.04 292.208"/></g><g filter="url(#filter16_f_1806_105858)"><path stroke="#000" stroke-width="37.013" d="M860.668 334.321C956.59 302.583 1203.35 220.409 1619.04 316.268"/></g><g filter="url(#filter17_f_1806_105858)"><ellipse cx="2149.38" cy="790.355" fill="url(#paint7_linear_1806_105858)" rx="152.461" ry="408.521" transform="rotate(-51.7359 2149.38 790.355)"/></g><g filter="url(#filter18_f_1806_105858)"><path fill="url(#paint8_linear_1806_105858)" d="M2424.41 713.122C2181.09 470.933 1567.01 140.582 1911.5 231.515C1970.9 171.837 2508.26 415.575 2636.26 542.987C2764.27 670.398 2944.03 919.549 2884.63 979.227C2690.71 1200.39 2552.41 840.533 2424.41 713.122Z"/></g><path stroke="url(#paint9_linear_1806_105858)" stroke-width="3.743" d="M723.746 395.413C816.658 355.717 1055.63 253.074 1477.91 313.622C1900.19 374.17 2395.76 557.201 2773.27 913.4"/><g filter="url(#filter19_f_1806_105858)"><path stroke="url(#paint10_linear_1806_105858)" stroke-width="17.051" d="M2765.62 910.758C2696.64 845.785 2503.38 688.123 2282.13 577.258"/></g><g filter="url(#filter20_f_1806_105858)"><ellipse cx="755.243" cy="463.757" fill="#DB91F8" rx="309.636" ry="58.819" transform="rotate(-10.3271 755.243 463.757)"/></g></g></g><defs><filter id="filter0_f_1806_105858" width="1844.6" height="688.892" x="684.902" y="153.663" color-interpolation-filters="sRGB" filterUnits="userSpaceOnUse"><feFlood flood-opacity="0" result="BackgroundImageFix"/><feBlend in="SourceGraphic" in2="BackgroundImageFix" mode="normal" result="shape"/><feGaussianBlur result="effect1_foregroundBlur_1806_105858" stdDeviation="28.28"/></filter><filter id="filter1_f_1806_105858" width="1549.43" height="599.399" x="762.06" y="-17.128" color-interpolation-filters="sRGB" filterUnits="userSpaceOnUse"><feFlood flood-opacity="0" result="BackgroundImageFix"/><feBlend in="SourceGraphic" in2="BackgroundImageFix" mode="normal" result="shape"/><feGaussianBlur result="effect1_foregroundBlur_1806_105858" stdDeviation="54.896"/></filter><filter id="filter2_f_1806_105858" width="2112.01" height="1575.19" x="780.555" y=".091" color-interpolation-filters="sRGB" filterUnits="userSpaceOnUse"><feFlood flood-opacity="0" result="BackgroundImageFix"/><feBlend in="SourceGraphic" in2="BackgroundImageFix" mode="normal" result="shape"/><feGaussianBlur result="effect1_foregroundBlur_1806_105858" stdDeviation="94.82"/></filter><filter id="filter3_f_1806_105858" width="1327.3" height="1071.73" x="1684.91" y="47.973" color-interpolation-filters="sRGB" filterUnits="userSpaceOnUse"><feFlood flood-opacity="0" result="BackgroundImageFix"/><feBlend in="SourceGraphic" in2="BackgroundImageFix" mode="normal" result="shape"/><feGaussianBlur result="effect1_foregroundBlur_1806_105858" stdDeviation="94.82"/></filter><filter id="filter4_f_1806_105858" width="1595.98" height="506.653" x="801.437" y="18.949" color-interpolation-filters="sRGB" filterUnits="userSpaceOnUse"><feFlood flood-opacity="0" result="BackgroundImageFix"/><feBlend in="SourceGraphic" in2="BackgroundImageFix" mode="normal" result="shape"/><feGaussianBlur result="effect1_foregroundBlur_1806_105858" stdDeviation="58.223"/></filter><filter id="filter5_f_1806_105858" width="543.243" height="668.649" x="2044.88" y="204.867" color-interpolation-filters="sRGB" filterUnits="userSpaceOnUse"><feFlood flood-opacity="0" result="BackgroundImageFix"/><feBlend in="SourceGraphic" in2="BackgroundImageFix" mode="normal" result="shape"/><feGaussianBlur result="effect1_foregroundBlur_1806_105858" stdDeviation="58.223"/></filter><filter id="filter6_f_1806_105858" width="1831.22" height="588.505" x="644.677" y="121.802" color-interpolation-filters="sRGB" filterUnits="userSpaceOnUse"><feFlood flood-opacity="0" result="BackgroundImageFix"/><feBlend in="SourceGraphic" in2="BackgroundImageFix" mode="normal" result="shape"/><feGaussianBlur result="effect1_foregroundBlur_1806_105858" stdDeviation="19.962"/></filter><filter id="filter7_f_1806_105858" width="1053.66" height="355.165" x="1119.41" y="125.806" color-interpolation-filters="sRGB" filterUnits="userSpaceOnUse"><feFlood flood-opacity="0" result="BackgroundImageFix"/><feBlend in="SourceGraphic" in2="BackgroundImageFix" mode="normal" result="shape"/><feGaussianBlur result="effect1_foregroundBlur_1806_105858" stdDeviation="31.607"/></filter><filter id="filter8_f_1806_105858" width="957.911" height="256.04" x="1179.4" y="168.201" color-interpolation-filters="sRGB" filterUnits="userSpaceOnUse"><feFlood flood-opacity="0" result="BackgroundImageFix"/><feBlend in="SourceGraphic" in2="BackgroundImageFix" mode="normal" result="shape"/><feGaussianBlur result="effect1_foregroundBlur_1806_105858" stdDeviation="8.318"/></filter><filter id="filter9_f_1806_105858" width="2471.79" height="2448.92" x="228.204" y="-47.281" color-interpolation-filters="sRGB" filterUnits="userSpaceOnUse"><feFlood flood-opacity="0" result="BackgroundImageFix"/><feBlend in="SourceGraphic" in2="BackgroundImageFix" mode="normal" result="shape"/><feGaussianBlur result="effect1_foregroundBlur_1806_105858" stdDeviation="94.82"/></filter><filter id="filter10_f_1806_105858" width="1625.87" height="1389.48" x="859.665" y="144.946" color-interpolation-filters="sRGB" filterUnits="userSpaceOnUse"><feFlood flood-opacity="0" result="BackgroundImageFix"/><feBlend in="SourceGraphic" in2="BackgroundImageFix" mode="normal" result="shape"/><feGaussianBlur result="effect1_foregroundBlur_1806_105858" stdDeviation="36.597"/></filter><filter id="filter11_f_1806_105858" width="2360.71" height="2360.7" x="503.392" y="-105.862" color-interpolation-filters="sRGB" filterUnits="userSpaceOnUse"><feFlood flood-opacity="0" result="BackgroundImageFix"/><feBlend in="SourceGraphic" in2="BackgroundImageFix" mode="normal" result="shape"/><feGaussianBlur result="effect1_foregroundBlur_1806_105858" stdDeviation="224.574"/></filter><filter id="filter12_f_1806_105858" width="761.392" height="1466.09" x="-23.661" y="106.507" color-interpolation-filters="sRGB" filterUnits="userSpaceOnUse"><feFlood flood-opacity="0" result="BackgroundImageFix"/><feBlend in="SourceGraphic" in2="BackgroundImageFix" mode="normal" result="shape"/><feGaussianBlur result="effect1_foregroundBlur_1806_105858" stdDeviation="51.569"/></filter><filter id="filter13_f_1806_105858" width="345.185" height="680.807" x="123.642" y="565.919" color-interpolation-filters="sRGB" filterUnits="userSpaceOnUse"><feFlood flood-opacity="0" result="BackgroundImageFix"/><feBlend in="SourceGraphic" in2="BackgroundImageFix" mode="normal" result="shape"/><feGaussianBlur result="effect1_foregroundBlur_1806_105858" stdDeviation="24.953"/></filter><filter id="filter14_f_1806_105858" width="1906.64" height="605.846" x="500.241" y="354.179" color-interpolation-filters="sRGB" filterUnits="userSpaceOnUse"><feFlood flood-opacity="0" result="BackgroundImageFix"/><feBlend in="SourceGraphic" in2="BackgroundImageFix" mode="normal" result="shape"/><feGaussianBlur result="effect1_foregroundBlur_1806_105858" stdDeviation="9.981"/></filter><filter id="filter15_f_1806_105858" width="930.413" height="302.339" x="654.426" y="171.852" color-interpolation-filters="sRGB" filterUnits="userSpaceOnUse"><feFlood flood-opacity="0" result="BackgroundImageFix"/><feBlend in="SourceGraphic" in2="BackgroundImageFix" mode="normal" result="shape"/><feGaussianBlur result="effect1_foregroundBlur_1806_105858" stdDeviation="41.588"/></filter><filter id="filter16_f_1806_105858" width="868.154" height="198.967" x="804.946" y="202.829" color-interpolation-filters="sRGB" filterUnits="userSpaceOnUse"><feFlood flood-opacity="0" result="BackgroundImageFix"/><feBlend in="SourceGraphic" in2="BackgroundImageFix" mode="normal" result="shape"/><feGaussianBlur result="effect1_foregroundBlur_1806_105858" stdDeviation="24.953"/></filter><filter id="filter17_f_1806_105858" width="875.181" height="766.173" x="1711.79" y="407.269" color-interpolation-filters="sRGB" filterUnits="userSpaceOnUse"><feFlood flood-opacity="0" result="BackgroundImageFix"/><feBlend in="SourceGraphic" in2="BackgroundImageFix" mode="normal" result="shape"/><feGaussianBlur result="effect1_foregroundBlur_1806_105858" stdDeviation="51.569"/></filter><filter id="filter18_f_1806_105858" width="1293.62" height="1039.73" x="1705.84" y="112.945" color-interpolation-filters="sRGB" filterUnits="userSpaceOnUse"><feFlood flood-opacity="0" result="BackgroundImageFix"/><feBlend in="SourceGraphic" in2="BackgroundImageFix" mode="normal" result="shape"/><feGaussianBlur result="effect1_foregroundBlur_1806_105858" stdDeviation="51.569"/></filter><filter id="filter19_f_1806_105858" width="526.419" height="380.598" x="2261.68" y="553.002" color-interpolation-filters="sRGB" filterUnits="userSpaceOnUse"><feFlood flood-opacity="0" result="BackgroundImageFix"/><feBlend in="SourceGraphic" in2="BackgroundImageFix" mode="normal" result="shape"/><feGaussianBlur result="effect1_foregroundBlur_1806_105858" stdDeviation="8.318"/></filter><filter id="filter20_f_1806_105858" width="775.96" height="326.718" x="367.262" y="300.399" color-interpolation-filters="sRGB" filterUnits="userSpaceOnUse"><feFlood flood-opacity="0" result="BackgroundImageFix"/><feBlend in="SourceGraphic" in2="BackgroundImageFix" mode="normal" result="shape"/><feGaussianBlur result="effect1_foregroundBlur_1806_105858" stdDeviation="41.588"/></filter><linearGradient id="paint0_linear_1806_105858" x1="901.323" x2="1411.31" y1="307.998" y2="179.791" gradientUnits="userSpaceOnUse"><stop stop-color="#F7F2D8"/><stop offset=".719" stop-color="#9D20FF"/></linearGradient><linearGradient id="paint1_linear_1806_105858" x1="1961.07" x2="1813.56" y1="326.506" y2=".66" gradientUnits="userSpaceOnUse"><stop stop-color="#F1EDFF" stop-opacity="0"/><stop offset=".535" stop-color="#FDD5C7"/><stop offset="1" stop-color="#F1EDFF" stop-opacity="0"/></linearGradient><linearGradient id="paint2_linear_1806_105858" x1="2004.81" x2="1819.33" y1="319.52" y2="-45.549" gradientUnits="userSpaceOnUse"><stop stop-color="#F1EDFF" stop-opacity="0"/><stop offset=".535" stop-color="#FDD5C7"/><stop offset="1" stop-color="#F1EDFF" stop-opacity="0"/></linearGradient><radialGradient id="paint3_radial_1806_105858" cx="0" cy="0" r="1" gradientTransform="translate(2112.8 804.035) rotate(-111.098) scale(1208.32 2042.82)" gradientUnits="userSpaceOnUse"><stop stop-color="#030103"/><stop offset=".802" stop-color="#3B3A75" stop-opacity=".71"/><stop offset=".958" stop-color="#B97AF1" stop-opacity=".61"/><stop offset="1" stop-color="#9E44EF"/></radialGradient><linearGradient id="paint4_linear_1806_105858" x1="362.35" x2="572.812" y1="691.972" y2="712.349" gradientUnits="userSpaceOnUse"><stop stop-color="#A075D6"/><stop offset=".923" stop-color="#9D20FF"/></linearGradient><linearGradient id="paint5_linear_1806_105858" x1="645.665" x2="14.984" y1="409.491" y2="888.657" gradientUnits="userSpaceOnUse"><stop stop-color="#F1EDFF" stop-opacity="0"/><stop offset=".464" stop-color="#F1EDFF"/><stop offset="1" stop-color="#F1EDFF" stop-opacity="0"/></linearGradient><linearGradient id="paint6_linear_1806_105858" x1="1428.32" x2="2400.17" y1="359.453" y2="915.307" gradientUnits="userSpaceOnUse"><stop stop-color="#B45BF3"/><stop offset="1" stop-color="#00B7FF"/></linearGradient><linearGradient id="paint7_linear_1806_105858" x1="2219.71" x2="2425.08" y1="807.881" y2="754.722" gradientUnits="userSpaceOnUse"><stop stop-color="#60EAE2"/><stop offset=".115" stop-color="#71BDDD"/><stop offset="1" stop-color="#AB66E1"/></linearGradient><linearGradient id="paint8_linear_1806_105858" x1="2479.25" x2="2395.08" y1="678.076" y2="872.046" gradientUnits="userSpaceOnUse"><stop stop-color="#F7F2D8"/><stop offset=".572" stop-color="#9D20FF"/></linearGradient><linearGradient id="paint9_linear_1806_105858" x1="1700.33" x2="1035.8" y1="260.616" y2="304.244" gradientUnits="userSpaceOnUse"><stop stop-color="#F1EDFF" stop-opacity="0"/><stop offset=".464" stop-color="#F1EDFF"/><stop offset="1" stop-color="#F1EDFF" stop-opacity="0"/></linearGradient><linearGradient id="paint10_linear_1806_105858" x1="2695.34" x2="2314.95" y1="847.788" y2="595.234" gradientUnits="userSpaceOnUse"><stop stop-color="#F1EDFF" stop-opacity="0"/><stop offset=".464" stop-color="#F7F6DB"/><stop offset="1" stop-color="#F1EDFF" stop-opacity="0"/></linearGradient><clipPath id="clip0_1806_105858"><rect width="2956.55" height="1031.78" fill="#fff" transform="translate(0.554688)"/></clipPath></defs></svg>