<svg xmlns="http://www.w3.org/2000/svg" width="160" height="96" fill="none" viewBox="0 0 160 96"><path fill="#fff" fill-opacity=".1" d="M-1084 -1437H2006V-1439H-1084V-1437ZM2007 -1436V1381H2009V-1436H2007ZM2006 1382H-1084V1384H2006V1382ZM-1085 1381V-1436H-1087V1381H-1085ZM-1084 1382C-1084.55 1382 -1085 1381.55 -1085 1381H-1087C-1087 1382.66 -1085.66 1384 -1084 1384V1382ZM2007 1381C2007 1381.55 2006.55 1382 2006 1382V1384C2007.66 1384 2009 1382.66 2009 1381H2007ZM2006 -1437C2006.55 -1437 2007 -1436.55 2007 -1436H2009C2009 -1437.66 2007.66 -1439 2006 -1439V-1437ZM-1084 -1439C-1085.66 -1439 -1087 -1437.66 -1087 -1436H-1085C-1085 -1436.55 -1084.55 -1437 -1084 -1437V-1439Z"/><g clip-path="url(#clip0_105_14273)"><g filter="url(#filter0_b_105_14273)"><rect width="81.348" height="47.26" x="38.699" y="16.354" fill="#161616" rx="4.934"/><rect width="80.348" height="46.26" x="39.199" y="16.854" stroke="#3E3E3E" rx="4.434"/></g><rect width="94.384" height="65.672" x="32.81" y="21.797" fill="#282828" stroke="#EDEDED" stroke-width=".822" rx="4.523"/><rect width="107.904" height="62.269" x="26.048" y="32.48" fill="#161616" stroke="#3E3E3E" rx="4.434"/><rect width="119" height="65.164" x="20.5" y="42.334" fill="#161616" stroke="#3E3E3E" rx="4.434"/></g><defs><filter id="filter0_b_105_14273" width="107.348" height="73.26" x="25.699" y="3.354" color-interpolation-filters="sRGB" filterUnits="userSpaceOnUse"><feFlood flood-opacity="0" result="BackgroundImageFix"/><feGaussianBlur in="BackgroundImageFix" stdDeviation="6.5"/><feComposite in2="SourceAlpha" operator="in" result="effect1_backgroundBlur_105_14273"/><feBlend in="SourceGraphic" in2="effect1_backgroundBlur_105_14273" mode="normal" result="shape"/></filter></defs></svg>