<svg xmlns="http://www.w3.org/2000/svg" width="160" height="96" fill="none" viewBox="0 0 160 96"><path fill="#fff" fill-opacity=".1" d="M-1706 -1437H1384V-1439H-1706V-1437ZM1385 -1436V1381H1387V-1436H1385ZM1384 1382H-1706V1384H1384V1382ZM-1707 1381V-1436H-1709V1381H-1707ZM-1706 1382C-1706.55 1382 -1707 1381.55 -1707 1381H-1709C-1709 1382.66 -1707.66 1384 -1706 1384V1382ZM1385 1381C1385 1381.55 1384.55 1382 1384 1382V1384C1385.66 1384 1387 1382.66 1387 1381H1385ZM1384 -1437C1384.55 -1437 1385 -1436.55 1385 -1436H1387C1387 -1437.66 1385.66 -1439 1384 -1439V-1437ZM-1706 -1439C-1707.66 -1439 -1709 -1437.66 -1709 -1436H-1707C-1707 -1436.55 -1706.55 -1437 -1706 -1437V-1439Z"/><g clip-path="url(#clip0_105_14273)"><g filter="url(#filter0_b_105_14273)" opacity=".25"><rect width="81.348" height="47.26" x="38.699" y="16.354" fill="#F8F9FA" rx="6"/><rect width="80.348" height="46.26" x="39.199" y="16.854" stroke="#C1C8CD" stroke-dasharray="4 4" stroke-linejoin="round" rx="5.5"/></g><g filter="url(#filter1_b_105_14273)" opacity=".3"><rect width="94.397" height="54.841" x="32.801" y="23.852" fill="#F8F9FA" rx="6"/><rect width="93.397" height="53.841" x="33.301" y="24.352" stroke="#C1C8CD" stroke-dasharray="4 4" stroke-linejoin="round" rx="5.5"/></g><g filter="url(#filter2_b_105_14273)" opacity=".5"><rect width="108.904" height="63.269" x="25.548" y="31.98" fill="#F8F9FA" rx="6"/><rect width="107.904" height="62.269" x="26.048" y="32.48" stroke="#C1C8CD" stroke-dasharray="4 4" stroke-linejoin="round" rx="5.5"/></g><g filter="url(#filter3_b_105_14273)"><rect width="120" height="66.164" x="20" y="41.834" fill="#F8F9FA" rx="6"/><rect width="119" height="65.164" x="20.5" y="42.334" stroke="#C1C8CD" rx="5.5"/></g></g><defs><filter id="filter0_b_105_14273" width="107.348" height="73.26" x="25.699" y="3.354" color-interpolation-filters="sRGB" filterUnits="userSpaceOnUse"><feFlood flood-opacity="0" result="BackgroundImageFix"/><feGaussianBlur in="BackgroundImageFix" stdDeviation="6.5"/><feComposite in2="SourceAlpha" operator="in" result="effect1_backgroundBlur_105_14273"/><feBlend in="SourceGraphic" in2="effect1_backgroundBlur_105_14273" mode="normal" result="shape"/></filter><filter id="filter1_b_105_14273" width="120.397" height="80.841" x="19.801" y="10.852" color-interpolation-filters="sRGB" filterUnits="userSpaceOnUse"><feFlood flood-opacity="0" result="BackgroundImageFix"/><feGaussianBlur in="BackgroundImageFix" stdDeviation="6.5"/><feComposite in2="SourceAlpha" operator="in" result="effect1_backgroundBlur_105_14273"/><feBlend in="SourceGraphic" in2="effect1_backgroundBlur_105_14273" mode="normal" result="shape"/></filter><filter id="filter2_b_105_14273" width="134.904" height="89.269" x="12.548" y="18.98" color-interpolation-filters="sRGB" filterUnits="userSpaceOnUse"><feFlood flood-opacity="0" result="BackgroundImageFix"/><feGaussianBlur in="BackgroundImageFix" stdDeviation="6.5"/><feComposite in2="SourceAlpha" operator="in" result="effect1_backgroundBlur_105_14273"/><feBlend in="SourceGraphic" in2="effect1_backgroundBlur_105_14273" mode="normal" result="shape"/></filter><filter id="filter3_b_105_14273" width="146" height="92.164" x="7" y="28.834" color-interpolation-filters="sRGB" filterUnits="userSpaceOnUse"><feFlood flood-opacity="0" result="BackgroundImageFix"/><feGaussianBlur in="BackgroundImageFix" stdDeviation="6.5"/><feComposite in2="SourceAlpha" operator="in" result="effect1_backgroundBlur_105_14273"/><feBlend in="SourceGraphic" in2="effect1_backgroundBlur_105_14273" mode="normal" result="shape"/></filter><clipPath id="clip0_105_14273"><rect width="160" height="96" fill="#fff"/></clipPath></defs></svg>