<svg xmlns="http://www.w3.org/2000/svg" width="160" height="96" fill="none" viewBox="0 0 160 96"><path fill="#fff" fill-opacity=".1" d="M-1257 -1437H1833V-1439H-1257V-1437ZM1834 -1436V1381H1836V-1436H1834ZM1833 1382H-1257V1384H1833V1382ZM-1258 1381V-1436H-1260V1381H-1258ZM-1257 1382C-1257.55 1382 -1258 1381.55 -1258 1381H-1260C-1260 1382.66 -1258.66 1384 -1257 1384V1382ZM1834 1381C1834 1381.55 1833.55 1382 1833 1382V1384C1834.66 1384 1836 1382.66 1836 1381H1834ZM1833 -1437C1833.55 -1437 1834 -1436.55 1834 -1436H1836C1836 -1437.66 1834.66 -1439 1833 -1439V-1437ZM-1257 -1439C-1258.66 -1439 -1260 -1437.66 -1260 -1436H-1258C-1258 -1436.55 -1257.55 -1437 -1257 -1437V-1439Z"/><g clip-path="url(#clip0_105_14273)"><g filter="url(#filter0_b_105_14273)" opacity=".25"><rect width="81.348" height="47.26" x="38.699" y="16.354" fill="#161616" rx="6"/><rect width="80.348" height="46.26" x="39.199" y="16.854" stroke="#3E3E3E" stroke-dasharray="4 4" stroke-linejoin="round" rx="5.5"/></g><g filter="url(#filter1_b_105_14273)" opacity=".3"><rect width="94.397" height="54.841" x="32.801" y="23.852" fill="#161616" rx="6"/><rect width="93.397" height="53.841" x="33.301" y="24.352" stroke="#3E3E3E" stroke-dasharray="4 4" stroke-linejoin="round" rx="5.5"/></g><g filter="url(#filter2_b_105_14273)" opacity=".5"><rect width="108.904" height="63.269" x="25.548" y="31.98" fill="#161616" rx="6"/><rect width="107.904" height="62.269" x="26.048" y="32.48" stroke="#3E3E3E" stroke-dasharray="4 4" stroke-linejoin="round" rx="5.5"/></g><g filter="url(#filter3_b_105_14273)"><rect width="120" height="66.164" x="20" y="41.834" fill="#161616" rx="6"/><rect width="119" height="65.164" x="20.5" y="42.334" stroke="#3E3E3E" rx="5.5"/></g></g><defs><filter id="filter0_b_105_14273" width="107.348" height="73.26" x="25.699" y="3.354" color-interpolation-filters="sRGB" filterUnits="userSpaceOnUse"><feFlood flood-opacity="0" result="BackgroundImageFix"/><feGaussianBlur in="BackgroundImageFix" stdDeviation="6.5"/><feComposite in2="SourceAlpha" operator="in" result="effect1_backgroundBlur_105_14273"/><feBlend in="SourceGraphic" in2="effect1_backgroundBlur_105_14273" mode="normal" result="shape"/></filter><filter id="filter1_b_105_14273" width="120.397" height="80.841" x="19.801" y="10.852" color-interpolation-filters="sRGB" filterUnits="userSpaceOnUse"><feFlood flood-opacity="0" result="BackgroundImageFix"/><feGaussianBlur in="BackgroundImageFix" stdDeviation="6.5"/><feComposite in2="SourceAlpha" operator="in" result="effect1_backgroundBlur_105_14273"/><feBlend in="SourceGraphic" in2="effect1_backgroundBlur_105_14273" mode="normal" result="shape"/></filter><filter id="filter2_b_105_14273" width="134.904" height="89.269" x="12.548" y="18.98" color-interpolation-filters="sRGB" filterUnits="userSpaceOnUse"><feFlood flood-opacity="0" result="BackgroundImageFix"/><feGaussianBlur in="BackgroundImageFix" stdDeviation="6.5"/><feComposite in2="SourceAlpha" operator="in" result="effect1_backgroundBlur_105_14273"/><feBlend in="SourceGraphic" in2="effect1_backgroundBlur_105_14273" mode="normal" result="shape"/></filter><filter id="filter3_b_105_14273" width="146" height="92.164" x="7" y="28.834" color-interpolation-filters="sRGB" filterUnits="userSpaceOnUse"><feFlood flood-opacity="0" result="BackgroundImageFix"/><feGaussianBlur in="BackgroundImageFix" stdDeviation="6.5"/><feComposite in2="SourceAlpha" operator="in" result="effect1_backgroundBlur_105_14273"/><feBlend in="SourceGraphic" in2="effect1_backgroundBlur_105_14273" mode="normal" result="shape"/></filter></defs></svg>