<svg xmlns="http://www.w3.org/2000/svg" xmlns:xlink="http://www.w3.org/1999/xlink" width="33" height="27" version="1.1" viewBox="0 0 33 27"><title>Group 11</title><desc>Created with Sketch.</desc><g id="Page-1" fill="none" fill-rule="evenodd" stroke="none" stroke-width="1"><g id="Group-11"><path id="Rectangle" fill="#888" fill-opacity=".5" d="M15,11 C16.2937198,11 18.2096374,14.9024372 20,13.9036848 C21.2224926,13.2217183 21.6630422,8.49965456 24.0929422,5.10132111 C24.9776554,3.86400658 26.9466747,2.49689954 30,1 L30,26 L2,26 L2,23.1656894 C4.4799755,18.943687 6.87078806,16.8326858 9.17243769,16.8326858 C11.3233993,14.8289503 13.3386423,11 15,11 Z"/><path id="Line-3" stroke="#979797" stroke-linecap="round" d="M2,24 C2,21.4601028 6,17.4826711 8.5,16.9826711 C11,16.4826711 13.5,11 15,11 C16.5,11 18.0233384,13.9036848 20,13.9036848 C21.9766616,13.9036848 21.9766616,7.14628013 24.5,4.65301723 C25.5370147,3.62836264 27.370348,2.38886275 30,0.934517551"/><line id="Line-4" x1=".5" x2="32.5" y1="26.5" y2="26.5" stroke="#979797" stroke-linecap="round"/><line id="Line-5" x1="10.5" x2="10.5" y1="15.5" y2="26.5" stroke="#979797" stroke-dasharray="1" stroke-linecap="round" stroke-width=".3"/><line id="Line-5" x1="21.5" x2="21.5" y1="12.5" y2="26.5" stroke="#979797" stroke-dasharray="1" stroke-linecap="round" stroke-width=".3"/><circle id="Oval" cx="30" cy="1" r="1" fill="#D8D8D8" stroke="#979797" stroke-width=".4"/></g></g></svg>