<svg xmlns="http://www.w3.org/2000/svg" width="390" height="430" fill="none" viewBox="0 0 390 430"><g clip-path="url(#clip0_392_4161)"><path stroke="#EDEDED" stroke-width=".502" d="M279.173 650.277L279.173 275.195"/><path stroke="#EDEDED" stroke-width=".502" d="M117.441 650.277L117.441 275.195"/><path stroke="#EDEDED" stroke-width=".502" d="M198.313 696.482L198.313 321.401"/><path fill="#FCFCFC" stroke="#EDEDED" stroke-width="1.237" d="M-227.715 468.123L196.012 219.457L619.285 470.366L-227.715 468.123Z" opacity=".8"/><ellipse cx="301.631" cy="222.602" fill="#B2B2B2" rx="1.507" ry="1.507"/><ellipse cx="326.643" cy="108.326" fill="#525252" rx="2.511" ry="2.495"/><ellipse cx="350.85" cy="222.602" fill="#B2B2B2" rx="2.511" ry="2.511"/><ellipse cx="89.687" cy="176.412" fill="#13C575" rx="1.507" ry="1.584"/><ellipse cx="251.621" cy="92.292" fill="#525252" rx="1.004" ry="1.004"/><ellipse cx="221.696" cy="103.573" fill="#EDEDED" rx="2.009" ry="2.009"/><ellipse cx="217.068" cy="249.2" fill="#13C575" rx="1.004" ry=".984"/><ellipse cx="51.145" cy="187.789" fill="#E2E2E2" rx="4.018" ry="4.018"/><ellipse cx="326.102" cy="238.157" fill="#EDEDED" rx="2.213" ry="2.213"/><ellipse cx="93.202" cy="215.212" fill="#EDEDED" rx="2.009" ry="2.009"/><ellipse cx="298.62" cy="213.562" fill="#EDEDED" rx="1.507" ry="1.507"/><ellipse cx="332.81" cy="267.771" fill="#E2E2E2" rx="2.511" ry="2.511"/><ellipse cx="213.235" cy="199.429" fill="#13C575" rx="1.465" ry="1.465"/><ellipse cx="221.273" cy="266.826" fill="#B2B2B2" rx="4.52" ry="4.52"/><ellipse cx="290.08" cy="367.749" fill="#13C575" rx="1.004" ry="1.004"/><ellipse cx="137.699" cy="139.772" fill="#E2E2E2" rx="1.507" ry="1.507"/><ellipse cx="84.163" cy="325.56" fill="#EDEDED" rx="1.004" ry="1.004"/><ellipse cx="229.31" cy="64.901" fill="#B2B2B2" rx=".503" ry=".503"/><ellipse cx="93.663" cy="309.991" fill="#13C575" rx="2.553" ry="2.511"/><ellipse cx="228.305" cy="108.093" fill="#525252" rx="2.511" ry="2.511"/><ellipse cx="29.922" cy="256.252" fill="#E2E2E2" rx="1.004" ry="1.004"/><ellipse cx="140.212" cy="96.602" fill="#13C575" rx="1.004" ry="1.004"/><ellipse cx="262.959" cy="36.271" fill="#13C575" rx="1.004" ry="1.006"/><path fill="#fff" fill-opacity=".03" d="M195.998 125.21L276.455 171.663V267.035L195.988 313.197L115.117 266.395V171.411L195.998 125.21Z"/><path stroke="#707070" stroke-width="1.004" d="M276.455 171.663L195.998 125.21L115.117 171.411M276.455 171.663V267.035L195.988 313.197M276.455 171.663L212.84 208.223L195.676 218.177M195.988 313.197L115.117 266.395V171.411M195.988 313.197L195.676 218.177M115.117 171.411L195.676 218.177"/><path stroke="#707070" stroke-dasharray=".5 2.01" stroke-width="1.004" d="M205.479 166.713L284.927 238.157"/><path stroke="#707070" stroke-dasharray=".5 2.01" stroke-width="1.004" d="M216.45 151.371L260.8 116.631"/><ellipse cx="205.482" cy="166.712" fill="#13C575" rx="2.511" ry="2.511"/><ellipse cx="289.076" cy="240.369" fill="#13C575" rx="4.146" ry="4.146"/><ellipse cx="140.212" cy="242.004" fill="#13C575" rx="2.511" ry="2.511"/><ellipse cx="216.001" cy="151.754" fill="#13C575" rx="2.192" ry="2.192" transform="rotate(18.0323 216.001 151.754)"/><ellipse cx="260.8" cy="116.631" fill="#13C575" rx="2.511" ry="2.511" transform="rotate(18.0323 260.8 116.631)"/><path stroke="#707070" stroke-dasharray=".5 2.01" stroke-width="1.004" d="M94.4092 309.076L175.95 243.008"/><ellipse cx="175.95" cy="243.009" fill="#13C575" rx="3.516" ry="3.516"/></g><defs><clipPath id="clip0_392_4161"><rect width="390" height="430" fill="#fff"/></clipPath></defs></svg>