<svg xmlns="http://www.w3.org/2000/svg" width="541" height="285" fill="none" viewBox="0 0 541 285"><g filter="url(#filter0_b_230_15343)"><path fill="#161616" d="M229 143.168L270.862 167.337L270.862 191.507L229 167.337L229 143.168Z"/><path stroke="#8E8E8E" stroke-linejoin="bevel" stroke-width="1.938" d="M229 143.168L270.862 167.337L270.862 191.507L229 167.337L229 143.168Z"/></g><g filter="url(#filter1_b_230_15343)"><path fill="#161616" d="M270.861 167.339L312.723 143.17L312.723 167.339L270.861 191.508L270.861 167.339Z"/><path stroke="#8E8E8E" stroke-linejoin="bevel" stroke-width="1.938" d="M270.861 167.339L312.723 143.17L312.723 167.339L270.861 191.508L270.861 167.339Z"/></g><g filter="url(#filter2_b_230_15343)"><path fill="#161616" d="M270.869 119L312.731 143.169L270.869 167.339L229.007 143.169L270.869 119Z"/><path stroke="#8E8E8E" stroke-linejoin="bevel" stroke-width="1.938" d="M270.869 119L312.731 143.169L270.869 167.339L229.007 143.169L270.869 119Z"/></g><defs><filter id="filter0_b_230_15343" width="45.036" height="51.771" x="227.413" y="141.452" color-interpolation-filters="sRGB" filterUnits="userSpaceOnUse"><feFlood flood-opacity="0" result="BackgroundImageFix"/><feGaussianBlur in="BackgroundImageFix" stdDeviation=".374"/><feComposite in2="SourceAlpha" operator="in" result="effect1_backgroundBlur_230_15343"/><feBlend in="SourceGraphic" in2="effect1_backgroundBlur_230_15343" mode="normal" result="shape"/></filter><filter id="filter1_b_230_15343" width="45.036" height="51.771" x="269.274" y="141.453" color-interpolation-filters="sRGB" filterUnits="userSpaceOnUse"><feFlood flood-opacity="0" result="BackgroundImageFix"/><feGaussianBlur in="BackgroundImageFix" stdDeviation=".374"/><feComposite in2="SourceAlpha" operator="in" result="effect1_backgroundBlur_230_15343"/><feBlend in="SourceGraphic" in2="effect1_backgroundBlur_230_15343" mode="normal" result="shape"/></filter><filter id="filter2_b_230_15343" width="88.392" height="52.297" x="226.673" y="117.021" color-interpolation-filters="sRGB" filterUnits="userSpaceOnUse"><feFlood flood-opacity="0" result="BackgroundImageFix"/><feGaussianBlur in="BackgroundImageFix" stdDeviation=".748"/><feComposite in2="SourceAlpha" operator="in" result="effect1_backgroundBlur_230_15343"/><feBlend in="SourceGraphic" in2="effect1_backgroundBlur_230_15343" mode="normal" result="shape"/></filter></defs></svg>