<svg xmlns="http://www.w3.org/2000/svg" width="541" height="285" fill="none" viewBox="0 0 541 285"><g filter="url(#filter0_b_230_15343)"><path fill="#161616" d="M312.662 144.281L271.032 168.69L229.058 144.37L271.041 120.348L312.662 144.281Z"/><path fill="#161616" d="M312.731 144.261L312.672 166.622L270.974 190.821L271.033 168.645L312.731 144.261Z"/><path fill="#161616" d="M271.033 168.637L270.973 190.799L229 166.556L229.059 144.394L271.033 168.637Z"/><path stroke="#3E3E3E" stroke-linejoin="bevel" stroke-width="1.49" d="M312.662 144.281L271.032 168.69L229.058 144.37L271.041 120.348L312.662 144.281Z"/><path stroke="#3E3E3E" stroke-linejoin="bevel" stroke-width="1.49" d="M312.731 144.261L312.672 166.622L270.974 190.821L271.033 168.645L312.731 144.261Z"/><path stroke="#3E3E3E" stroke-linejoin="bevel" stroke-width="1.49" d="M271.033 168.637L270.973 190.799L229 166.556L229.059 144.394L271.033 168.637Z"/></g><defs><filter id="filter0_b_230_15343" width="87.52" height="74.064" x="227.106" y="118.551" color-interpolation-filters="sRGB" filterUnits="userSpaceOnUse"><feFlood flood-opacity="0" result="BackgroundImageFix"/><feGaussianBlur in="BackgroundImageFix" stdDeviation=".575"/><feComposite in2="SourceAlpha" operator="in" result="effect1_backgroundBlur_230_15343"/><feBlend in="SourceGraphic" in2="effect1_backgroundBlur_230_15343" mode="normal" result="shape"/></filter></defs></svg>