<svg xmlns="http://www.w3.org/2000/svg" width="541" height="285" fill="none" viewBox="0 0 541 285"><g filter="url(#filter0_b_230_15539)"><path fill="#fff" d="M229 142.168L270.862 166.337L270.862 190.507L229 166.337L229 142.168Z"/><path stroke="#697076" stroke-linejoin="bevel" stroke-width="1.938" d="M229 142.168L270.862 166.337L270.862 190.507L229 166.337L229 142.168Z"/></g><g filter="url(#filter1_b_230_15539)"><path fill="#fff" d="M270.861 166.339L312.723 142.17L312.723 166.339L270.861 190.508L270.861 166.339Z"/><path stroke="#697076" stroke-linejoin="bevel" stroke-width="1.938" d="M270.861 166.339L312.723 142.17L312.723 166.339L270.861 190.508L270.861 166.339Z"/></g><g filter="url(#filter2_b_230_15539)"><path fill="#fff" d="M270.869 118L312.731 142.169L270.869 166.339L229.007 142.169L270.869 118Z"/><path stroke="#697076" stroke-linejoin="bevel" stroke-width="1.938" d="M270.869 118L312.731 142.169L270.869 166.339L229.007 142.169L270.869 118Z"/></g><defs><filter id="filter0_b_230_15539" width="45.036" height="51.771" x="227.413" y="140.452" color-interpolation-filters="sRGB" filterUnits="userSpaceOnUse"><feFlood flood-opacity="0" result="BackgroundImageFix"/><feGaussianBlur in="BackgroundImageFix" stdDeviation=".374"/><feComposite in2="SourceAlpha" operator="in" result="effect1_backgroundBlur_230_15539"/><feBlend in="SourceGraphic" in2="effect1_backgroundBlur_230_15539" mode="normal" result="shape"/></filter><filter id="filter1_b_230_15539" width="45.036" height="51.771" x="269.274" y="140.453" color-interpolation-filters="sRGB" filterUnits="userSpaceOnUse"><feFlood flood-opacity="0" result="BackgroundImageFix"/><feGaussianBlur in="BackgroundImageFix" stdDeviation=".374"/><feComposite in2="SourceAlpha" operator="in" result="effect1_backgroundBlur_230_15539"/><feBlend in="SourceGraphic" in2="effect1_backgroundBlur_230_15539" mode="normal" result="shape"/></filter><filter id="filter2_b_230_15539" width="88.392" height="52.297" x="226.673" y="116.021" color-interpolation-filters="sRGB" filterUnits="userSpaceOnUse"><feFlood flood-opacity="0" result="BackgroundImageFix"/><feGaussianBlur in="BackgroundImageFix" stdDeviation=".748"/><feComposite in2="SourceAlpha" operator="in" result="effect1_backgroundBlur_230_15539"/><feBlend in="SourceGraphic" in2="effect1_backgroundBlur_230_15539" mode="normal" result="shape"/></filter></defs></svg>