<svg xmlns="http://www.w3.org/2000/svg" width="49" height="49" fill="none" viewBox="0 0 49 49"><path stroke="#92CEAC" stroke-linejoin="bevel" stroke-miterlimit="10" stroke-width="2" d="M19.0612 19.2371C20.5187 17.7712 22.432 17.0344 24.3478 17.0278C26.2662 17.0213 28.187 17.7471 29.6549 19.2066C32.5886 22.1235 32.6023 26.8664 29.6854 29.8002C26.7684 32.734 22.0255 32.7477 19.0917 29.8307C17.6971 28.4441 16.9623 26.6448 16.8886 24.8234"/><path stroke="#92CEAC" stroke-linejoin="bevel" stroke-miterlimit="10" stroke-width="2" d="M15.4169 15.6135C17.8742 13.1419 21.1003 11.8996 24.3304 11.8886C27.5649 11.8776 30.8034 13.1013 33.2784 15.5621C38.2249 20.4802 38.248 28.4771 33.3299 33.4236C28.4117 38.3702 20.4148 38.3932 15.4683 33.4751C13.1168 31.1371 11.878 28.1034 11.7537 25.0323"/><path stroke="#299764" stroke-linejoin="bevel" stroke-miterlimit="10" stroke-width="2" d="M11.7843 12.0024C18.6972 5.04959 29.9376 5.01721 36.8904 11.9301C43.8432 18.843 43.8756 30.0834 36.9627 37.0363C30.0498 43.9891 18.8094 44.0215 11.8566 37.1086C8.46238 33.7339 6.71743 29.3279 6.6246 24.8928"/><path stroke="#299764" stroke-linejoin="bevel" stroke-miterlimit="10" stroke-width="2" d="M3.49023 24.8623L25.645 24.8623"/><ellipse cx="31.161" cy="17.401" fill="#5BB98C" stroke="#299764" stroke-linejoin="bevel" stroke-miterlimit="10" stroke-width="2" rx="3.093" ry="3.093"/><ellipse cx="12.222" cy="37.24" fill="#5BB98C" stroke="#299764" stroke-linejoin="bevel" stroke-miterlimit="10" stroke-width="2" rx="3.093" ry="3.093"/></svg>