<svg xmlns="http://www.w3.org/2000/svg" width="49" height="49" fill="none" viewBox="0 0 49 49"><rect width="48" height="48" x=".615" y=".583" fill="#164430" rx="8"/><circle cx="24.297" cy="25.735" r="4.876" fill="#133929" transform="rotate(30 24.2974 25.7347)"/><circle cx="23.293" cy="24.146" r="2" fill="#4CC38A" transform="rotate(30 23.2931 24.1459)"/><path stroke="#4CC38A" stroke-linejoin="bevel" stroke-miterlimit="10" stroke-width="2" d="M15.8596 31.5868C16.2515 32.1909 16.7123 32.7633 17.2419 33.2929C21.3146 37.3656 27.9177 37.3656 31.9903 33.2929C36.063 29.2203 36.063 22.6171 31.9903 18.5445C27.9177 14.4718 21.3146 14.4718 17.2419 18.5445C15.7268 20.0596 14.7753 21.9249 14.3875 23.8799M14.3712 27.8737C14.281 27.3985 14.224 26.9183 14.2002 26.4367"/><path stroke="#4CC38A" stroke-linejoin="bevel" stroke-miterlimit="10" stroke-width="2" d="M6.03418 25.9185L11.1938 20.7589C18.6062 13.3465 30.6241 13.3465 38.0365 20.7589L43.1961 25.9185L38.0365 31.078C30.6241 38.4904 18.6062 38.4905 11.1938 31.078L6.03418 25.9185Z"/><path stroke="#133929" stroke-linejoin="bevel" stroke-miterlimit="10" stroke-width="2" d="M6.03418 19.6809L9.05877 16.6563C17.6503 8.06478 31.5799 8.06478 40.1715 16.6563L43.1961 19.6809"/></svg>