<svg xmlns="http://www.w3.org/2000/svg" width="49" height="49" fill="none" viewBox="0 0 49 49"><rect width="48" height="48" x=".615" y=".583" fill="#DDF3E4" rx="8"/><path stroke="#92CEAC" stroke-linejoin="bevel" stroke-miterlimit="10" stroke-width="2" d="M16.0391 9.83691L18.3369 13.8168"/><path stroke="#92CEAC" stroke-linejoin="bevel" stroke-miterlimit="10" stroke-width="2" d="M31.1187 35.9563L33.4165 39.9362"/><path stroke="#92CEAC" stroke-linejoin="bevel" stroke-miterlimit="10" stroke-width="2" d="M39.8047 16.2019L35.8248 18.4997"/><path stroke="#92CEAC" stroke-linejoin="bevel" stroke-miterlimit="10" stroke-width="2" d="M13.6577 31.2781L9.67781 33.5759"/><path stroke="#92CEAC" stroke-linejoin="bevel" stroke-miterlimit="10" stroke-width="2.01" d="M9.48242 16.1675L13.4623 18.4653"/><path stroke="#92CEAC" stroke-linejoin="bevel" stroke-miterlimit="10" stroke-width="2.01" d="M35.6021 31.2473L39.582 33.5451"/><path stroke="#92CEAC" stroke-linejoin="bevel" stroke-miterlimit="10" stroke-width="2.01" d="M33.2212 9.80664L30.9234 13.7865"/><path stroke="#92CEAC" stroke-linejoin="bevel" stroke-miterlimit="10" stroke-width="2.01" d="M18.1411 35.9265L15.8433 39.9064"/><ellipse cx="24.722" cy="24.689" stroke="#299764" stroke-linejoin="bevel" stroke-miterlimit="10" stroke-width="2" rx="17.577" ry="17.577"/><path stroke="#299764" stroke-linejoin="bevel" stroke-miterlimit="10" stroke-width="2" d="M24.7246 7.51074V12.1063"/><path stroke="#299764" stroke-linejoin="bevel" stroke-miterlimit="10" stroke-width="2" d="M24.7246 37.6707V42.2663"/><path stroke="#299764" stroke-linejoin="bevel" stroke-miterlimit="10" stroke-width="2" d="M42.1025 24.8887L37.5069 24.8887"/><path stroke="#299764" stroke-linejoin="bevel" stroke-miterlimit="10" stroke-width="2" d="M11.9419 24.8887L7.34629 24.8887"/><path stroke="#299764" stroke-linejoin="bevel" stroke-miterlimit="10" stroke-width="2" d="M24.6636 16.2019V22.4829M34.0286 34.2248L26.1525 26.3487"/><ellipse fill="#5BB98C" stroke="#299764" stroke-linejoin="bevel" stroke-miterlimit="10" stroke-width="2" rx="3.021" ry="3.021" transform="matrix(-1 0 0 1 24.7218 24.6893)"/></svg>