<svg xmlns="http://www.w3.org/2000/svg" width="49" height="49" fill="none" viewBox="0 0 49 49"><rect width="48" height="48" x=".615" y=".583" fill="#164430" rx="8"/><path stroke="#133929" stroke-linejoin="bevel" stroke-miterlimit="10" stroke-width="2" d="M38.0239 11.6172L33.7549 15.8862"/><path stroke="#133929" stroke-linejoin="bevel" stroke-miterlimit="10" stroke-width="2" d="M15.7236 33.5352L11.4546 37.8042"/><path stroke="#133929" stroke-linejoin="bevel" stroke-miterlimit="10" stroke-width="2" d="M37.833 37.9954L33.564 33.7263"/><path stroke="#133929" stroke-linejoin="bevel" stroke-miterlimit="10" stroke-width="2" d="M15.915 15.6951L11.646 11.426"/><ellipse cx="9.571" cy="39.627" stroke="#133929" stroke-linejoin="bevel" stroke-miterlimit="10" stroke-width="2" rx="2.5" ry="2.5"/><ellipse cx="9.571" cy="9.553" stroke="#133929" stroke-linejoin="bevel" stroke-miterlimit="10" stroke-width="2" rx="2.5" ry="2.5"/><ellipse cx="6.128" cy="24.709" stroke="#133929" stroke-linejoin="bevel" stroke-miterlimit="10" stroke-width="2" rx="2.5" ry="2.5"/><ellipse cx="43.345" cy="24.709" stroke="#133929" stroke-linejoin="bevel" stroke-miterlimit="10" stroke-width="2" rx="2.5" ry="2.5"/><ellipse cx="24.736" cy="6.101" stroke="#133929" stroke-linejoin="bevel" stroke-miterlimit="10" stroke-width="2" rx="2.5" ry="2.5" transform="rotate(90 24.7363 6.10107)"/><ellipse cx="24.736" cy="43.317" stroke="#133929" stroke-linejoin="bevel" stroke-miterlimit="10" stroke-width="2" rx="2.5" ry="2.5" transform="rotate(90 24.7363 43.3174)"/><ellipse cx="39.679" cy="39.746" stroke="#133929" stroke-linejoin="bevel" stroke-miterlimit="10" stroke-width="2" rx="2.5" ry="2.5" transform="rotate(-75 39.6791 39.7464)"/><ellipse cx="39.679" cy="9.672" stroke="#133929" stroke-linejoin="bevel" stroke-miterlimit="10" stroke-width="2" rx="2.5" ry="2.5" transform="rotate(-75 39.6791 9.67217)"/><ellipse cx="24.7" cy="23.15" fill="#1B543A" stroke="#4CC38A" stroke-linejoin="bevel" stroke-miterlimit="10" stroke-width="2" rx="5" ry="5"/><path stroke="#4CC38A" stroke-linejoin="bevel" stroke-miterlimit="10" stroke-width="2" d="M17.2734 33.9437V33.9437C17.2734 30.7441 19.8672 28.1504 23.0667 28.1504H26.1647C29.3642 28.1504 31.958 30.7441 31.958 33.9437V33.9437"/><ellipse cx="24.7" cy="24.668" stroke="#4CC38A" stroke-linejoin="bevel" stroke-miterlimit="10" stroke-width="2" rx="12" ry="12"/><path stroke="#133929" stroke-linejoin="bevel" stroke-miterlimit="10" stroke-width="2" d="M8.62195 12.1765L6.72316 21.6558M9.50586 36.7533L6.86365 27.3889"/><path stroke="#133929" stroke-linejoin="bevel" stroke-miterlimit="10" stroke-width="2" d="M40.0583 12.4807L42.5073 22.3351M40.0583 36.9554L42.5073 27.1"/><path stroke="#133929" stroke-linejoin="bevel" stroke-miterlimit="10" stroke-width="2" d="M36.7715 9.1936L27.3297 6.89027M12.4145 8.77427L22.0908 6.73403"/><path stroke="#133929" stroke-linejoin="bevel" stroke-miterlimit="10" stroke-width="2" d="M36.6646 40.457L27.0219 42.4319M12.3681 40.457L22.0765 42.4319"/></svg>