<svg xmlns="http://www.w3.org/2000/svg" width="49" height="49" fill="none" viewBox="0 0 49 49"><rect width="48" height="48" x=".615" y=".583" fill="#164430" rx="8"/><ellipse cx="24.616" cy="24.583" fill="#1B543A" rx="10.445" ry="10.445"/><path stroke="#133929" stroke-linejoin="bevel" stroke-miterlimit="10" stroke-width="2" d="M38.5327 13.8105C44.4469 21.6305 42.902 32.7642 35.0821 38.6785C27.2621 44.5927 16.1283 43.0479 10.2141 35.2279C4.29982 27.4079 5.8447 16.2742 13.6647 10.3599C17.4822 7.47272 22.0894 6.36315 26.4936 6.89344"/><path stroke="#4CC38A" stroke-linejoin="bevel" stroke-miterlimit="10" stroke-width="2" d="M24.3734 42.272C14.5688 42.272 6.62061 34.3238 6.6206 24.5192C6.6206 19.7328 8.51477 15.3889 11.5944 12.1961"/><path stroke="#4CC38A" stroke-linejoin="bevel" stroke-miterlimit="10" stroke-width="2" d="M12.125 17.2451L12.125 11.9753L6.85522 11.9753"/><path stroke="#4CC38A" stroke-linejoin="bevel" stroke-miterlimit="10" stroke-width="2" d="M24.3732 6.76636C34.1778 6.76636 42.126 14.7146 42.126 24.5192C42.126 29.3055 40.2318 33.6494 37.1522 36.8423"/><path stroke="#4CC38A" stroke-linejoin="bevel" stroke-miterlimit="10" stroke-width="2" d="M36.6216 31.7932L36.6216 37.063L41.8914 37.063"/><path stroke="#4CC38A" stroke-linejoin="bevel" stroke-miterlimit="10" stroke-width="2" d="M19.0513 24.7319L22.6614 28.342L30.1792 20.8242"/></svg>