<svg xmlns="http://www.w3.org/2000/svg" width="49" height="49" fill="none" viewBox="0 0 49 49"><rect width="48" height="48" x=".615" y=".583" fill="#DDF3E4" rx="8"/><path stroke="#92CEAC" stroke-linejoin="bevel" stroke-miterlimit="10" stroke-width="2.01" d="M18.8701 24.5488L21.6753 30.3739"/><path stroke="#92CEAC" stroke-linejoin="bevel" stroke-miterlimit="10" stroke-width="2.01" d="M32.5746 30.683L30.3 32.5934"/><path stroke="#92CEAC" stroke-linejoin="bevel" stroke-miterlimit="10" stroke-width="2.01" d="M24.1841 19.3013L30.3125 21.4368"/><path stroke="#92CEAC" stroke-linejoin="bevel" stroke-miterlimit="10" stroke-width="2" d="M11.7754 39.0007L17.439 37.7939"/><path stroke="#92CEAC" stroke-linejoin="bevel" stroke-miterlimit="10" stroke-width="2" d="M37.2285 39.8081L30.6406 38.8569"/><ellipse cx="24.105" cy="35.453" fill="#5BB98C" stroke="#299764" stroke-linejoin="bevel" stroke-miterlimit="10" stroke-width="2" rx="2.341" ry="2.341"/><path stroke="#299764" stroke-linejoin="bevel" stroke-miterlimit="10" stroke-width="2" d="M20.1445 40.9811V40.9811C20.1445 39.2209 21.5715 37.7939 23.3317 37.7939H25.0361C26.7963 37.7939 28.2233 39.2209 28.2233 40.9811V40.9811"/><ellipse cx="24.184" cy="36.056" stroke="#299764" stroke-linejoin="bevel" stroke-miterlimit="10" stroke-width="2" rx="6.555" ry="6.555"/><path stroke="#92CEAC" stroke-linejoin="bevel" stroke-miterlimit="10" stroke-width="2" d="M12.0375 25.0637L10.0928 36.694"/><path stroke="#92CEAC" stroke-linejoin="bevel" stroke-miterlimit="10" stroke-width="2" d="M37.7832 16.6614L38.7832 12.0378"/><path stroke="#92CEAC" stroke-linejoin="bevel" stroke-miterlimit="10" stroke-width="2" d="M36.8184 9.90649L24.105 12.6675"/><ellipse cx="15.015" cy="14.22" fill="#5BB98C" stroke="#299764" stroke-linejoin="bevel" stroke-miterlimit="10" stroke-width="2" rx="4.001" ry="4.001"/><path stroke="#299764" stroke-linejoin="bevel" stroke-miterlimit="10" stroke-width="2" d="M9.42188 22.7209V22.7209C9.42188 20.2354 11.4368 18.2205 13.9224 18.2205H16.329C18.8146 18.2205 20.8295 20.2354 20.8295 22.7209V22.7209"/><ellipse cx="15.126" cy="15.766" stroke="#299764" stroke-linejoin="bevel" stroke-miterlimit="10" stroke-width="2" rx="9.256" ry="9.256"/><ellipse cx="9.641" cy="39.697" stroke="#92CEAC" stroke-linejoin="bevel" stroke-miterlimit="10" stroke-width="2" rx="2.57" ry="2.57"/><ellipse cx="39.65" cy="39.697" stroke="#92CEAC" stroke-linejoin="bevel" stroke-miterlimit="10" stroke-width="2" rx="2.57" ry="2.57"/><path stroke="#92CEAC" stroke-linejoin="bevel" stroke-miterlimit="10" stroke-width="2" d="M39.554 36.884L39.1313 32.1631"/><ellipse cx="39.65" cy="9.468" stroke="#92CEAC" stroke-linejoin="bevel" stroke-miterlimit="10" stroke-width="2" rx="2.57" ry="2.57"/><ellipse cx="37.505" cy="23.295" fill="#5BB98C" stroke="#299764" stroke-linejoin="bevel" stroke-miterlimit="10" stroke-width="2.01" rx="3.244" ry="3.244"/><path stroke="#299764" stroke-linejoin="bevel" stroke-miterlimit="10" stroke-width="2" d="M32.9697 30.1885V30.1885C32.9697 28.173 34.6036 26.5391 36.6191 26.5391H38.5707C40.5862 26.5391 42.2201 28.173 42.2201 30.1885V30.1885"/><ellipse cx="37.595" cy="24.549" stroke="#299764" stroke-linejoin="bevel" stroke-miterlimit="10" stroke-width="2" rx="7.506" ry="7.506"/></svg>