<svg xmlns="http://www.w3.org/2000/svg" width="49" height="49" fill="none" viewBox="0 0 49 49"><path stroke="#299764" stroke-linejoin="bevel" stroke-miterlimit="10" stroke-width="2" d="M13.3936 31.2238L36.8493 31.2236"/><path stroke="#92CEAC" stroke-linejoin="bevel" stroke-miterlimit="10" stroke-width="2" d="M9.1748 22.1114C9.1748 18.866 10.1508 15.8487 11.8253 13.3367L12.9433 11.9117L14.3699 10.3814C16.2536 8.67096 18.5509 7.40804 21.0941 6.7605M40.8543 22.1114C40.8543 14.7164 35.7868 8.5051 28.935 6.7605"/><line x1="25.051" x2="25.051" y1="7.168" y2="10.226" stroke="#299764" stroke-linejoin="bevel" stroke-miterlimit="10" stroke-width="2"/><path fill="#5BB98C" stroke="#299764" stroke-linejoin="bevel" stroke-miterlimit="10" stroke-width="2" d="M22.2568 37.9265H27.5536V41.929H22.2568L22.2568 37.9265Z"/><path stroke="#299764" stroke-linejoin="bevel" stroke-miterlimit="10" stroke-width="2" d="M7.98145 7.65308L42.7388 42.4105"/><path stroke="#299764" stroke-linejoin="bevel" stroke-miterlimit="10" stroke-width="2" d="M10.916 37.85H37.9082H38.7846V31.2125H36.3479V21.7072C36.3479 15.4226 31.2532 10.3279 24.9686 10.3279C22.0246 10.3279 19.3417 11.4458 17.3214 13.2804L16.2965 14.3797L15.4933 15.4035C14.2904 17.2081 13.5892 19.3758 13.5892 21.7072L13.4634 31.2125H10.916V37.85Z"/></svg>