<svg xmlns="http://www.w3.org/2000/svg" id="Layer_2" data-name="Layer 2" viewBox="0 0 25 25"><defs><style>.cls-1,.cls-2{stroke-linecap:round;stroke-linejoin:round}.cls-1,.cls-2,.cls-3{fill:none;stroke:#3fcf8e}.cls-4{fill:#3fcf8e;opacity:.1}.cls-2{strokeDasharray:0 0 4.17 2.08}.cls-3{stroke-miterlimit:10}.cls-5{opacity:.5}</style></defs><g id="Layer_1-2" data-name="Layer 1"><rect width="24" height="24" x=".5" y=".5" class="cls-4" rx="6" ry="6"/><g class="cls-5"><g><line x1="12.5" x2="10.5" y1="21.5" y2="21.5" class="cls-1"/><path d="M8.42,21.5h-.92c-2.21,0-4-1.79-4-4V7.5c0-2.21,1.79-4,4-4h10c2.21,0,4,1.79,4,4v2.96" class="cls-2"/><line x1="21.5" x2="21.5" y1="11.5" y2="13.5" class="cls-1"/></g></g><rect width="24" height="24" x=".5" y=".5" class="cls-1" rx="6" ry="6"/><path d="M12.53,13.07l3.06,8.16c.14,.39,.7,.35,.8-.05l.9-3.59c.04-.15,.16-.27,.31-.31l3.59-.9c.4-.1,.43-.65,.05-.8l-8.16-3.06c-.34-.13-.67,.2-.54,.54Z" class="cls-3"/></g></svg>