<svg xmlns="http://www.w3.org/2000/svg" width="446" height="150" fill="none" viewBox="0 0 446 150"><g clip-path="url(#clip0_387_84287)"><rect width="445.5" height="149" fill="#1C1C1C" transform="translate(0.5 0.255859)"/><rect width="24" height="24" x="285.068" y="3.506" stroke="#262626"/><rect width="24" height="24" x="117.068" y="3.506" stroke="#262626"/><rect width="24" height="24" x="93.068" y="3.506" stroke="#262626"/><rect width="24" height="24" x="309.068" y="3.506" stroke="#262626"/><rect width="24" height="24" x="141.068" y="3.506" stroke="#262626"/><rect width="24" height="24" x="261.068" y="3.506" stroke="#262626"/><rect width="24" height="24" x="285.068" y="27.506" stroke="#262626"/><rect width="24" height="24" x="93.068" y="75.506" stroke="#262626"/><rect width="24" height="24" x="69.068" y="51.506" stroke="#262626"/><rect width="24" height="24" x="21.068" y="51.506" stroke="#262626"/><rect width="24" height="24" x="45.068" y="51.506" stroke="#262626"/><rect width="24" height="24" x="93.068" y="27.506" stroke="#262626"/><rect width="24" height="24" x="69.068" y="27.506" stroke="#3E3E3E"/><rect width="24" height="24" x="309.068" y="27.506" stroke="#262626"/><rect width="24" height="24" x="357.068" y="51.506" stroke="#262626"/><rect width="24" height="24" x="382.919" y="26.006" stroke="#262626"/><rect width="24" height="24" x="357.068" y="3.506" stroke="#262626"/><rect width="24" height="24" x="141.068" y="27.506" stroke="#262626"/><rect width="24" height="24" x="237.068" y="27.506" stroke="#3E3E3E"/><rect width="24" height="24" x="213.068" y="51.506" stroke="#262626"/><rect width="24" height="24" x="189.068" y="51.506" stroke="#262626"/><rect width="24" height="24" x="189.068" y="27.506" stroke="#262626"/><rect width="24" height="24" x="165.068" y="27.506" stroke="#262626"/><rect width="24" height="24" x="165.068" y="51.506" stroke="#262626"/><rect width="32" height="32" x="54.919" y="-22.744" stroke="#262626"/><g filter="url(#filter0_b_387_84287)"><rect width="192" height="134.5" x="117.068" y="27.506" fill="#232323" fill-opacity=".94" rx="4"/><rect width="192" height="134.5" x="117.068" y="27.506" stroke="#2E2E2E" rx="4"/></g><circle cx="126.321" cy="36.075" r="2" fill="#3E3E3E"/><circle cx="133.821" cy="36.075" r="2" fill="#3E3E3E"/><g filter="url(#filter1_b_387_84287)"><rect width="157.74" height="110.5" x="134.198" y="51.506" fill="#161616" rx="4"/><rect width="157.74" height="110.5" x="134.198" y="51.506" stroke="#1C1C1C" rx="4"/></g><rect width="445.5" height="149" x=".5" y=".256" fill="url(#paint0_radial_387_84287)"/><rect width="24.5" height="83" x="138" y="55.756" fill="#1C1C1C" rx="2"/><rect width="120.25" height="4.25" x="164.818" y="63.506" fill="#1C1C1C" rx="2"/><rect width="120.25" height="4.25" x="164.818" y="71.756" fill="#1C1C1C" rx="2"/><rect width="120.25" height="4.25" x="164.818" y="80.006" fill="#1C1C1C" rx="2"/><rect width="120.25" height="4.25" x="164.818" y="88.256" fill="#1C1C1C" rx="2"/><rect width="120.25" height="4.25" x="164.818" y="96.506" fill="#1C1C1C" rx="2"/><rect width="120.25" height="4.25" x="164.818" y="104.756" fill="#1C1C1C" rx="2"/><rect width="120.25" height="4.25" x="164.818" y="113.006" fill="#1C1C1C" rx="2"/><rect width="120.25" height="4.25" x="164.818" y="121.256" fill="#1C1C1C" rx="2"/><rect width="120.25" height="4.25" x="164.818" y="129.506" fill="#1C1C1C" rx="2"/><rect width="120.25" height="4.25" x="164.818" y="137.756" fill="#1C1C1C" rx="2"/><rect width="14.932" height="4.25" x="164.818" y="55.756" fill="#1C1C1C" rx="2"/><rect width="21.682" height="4.25" x="182.068" y="55.756" fill="#1C1C1C" rx="2"/><rect width="21.682" height="4.25" x="206.068" y="55.756" fill="#1C1C1C" rx="2"/><rect width="55" height="4.25" x="230.068" y="55.756" fill="#1C1C1C" rx="2"/></g><defs><filter id="filter0_b_387_84287" width="194" height="136.5" x="116.068" y="26.506" color-interpolation-filters="sRGB" filterUnits="userSpaceOnUse"><feFlood flood-opacity="0" result="BackgroundImageFix"/><feGaussianBlur in="BackgroundImageFix" stdDeviation=".25"/><feComposite in2="SourceAlpha" operator="in" result="effect1_backgroundBlur_387_84287"/><feBlend in="SourceGraphic" in2="effect1_backgroundBlur_387_84287" mode="normal" result="shape"/></filter><filter id="filter1_b_387_84287" width="159.74" height="112.5" x="133.198" y="50.506" color-interpolation-filters="sRGB" filterUnits="userSpaceOnUse"><feFlood flood-opacity="0" result="BackgroundImageFix"/><feGaussianBlur in="BackgroundImageFix" stdDeviation=".25"/><feComposite in2="SourceAlpha" operator="in" result="effect1_backgroundBlur_387_84287"/><feBlend in="SourceGraphic" in2="effect1_backgroundBlur_387_84287" mode="normal" result="shape"/></filter><radialGradient id="paint0_radial_387_84287" cx="0" cy="0" r="1" gradientTransform="translate(223.25 67.2559) rotate(90) scale(71.5 213.78)" gradientUnits="userSpaceOnUse"><stop offset=".208" stop-color="#1C1C1C" stop-opacity="0"/><stop offset="1" stop-color="#1C1C1C"/></radialGradient><clipPath id="clip0_387_84287"><rect width="445.5" height="149" fill="#fff" transform="translate(0.5 0.255859)"/></clipPath></defs></svg>