<svg xmlns="http://www.w3.org/2000/svg" width="125" height="115" fill="none" viewBox="0 0 125 115"><rect width="122.761" height="100.19" x=".87" y="1.444" fill="#232323" stroke="#282828" rx="3.5"/><path stroke="#282828" d="M0.370117 12.9824H124.131"/><circle cx="7.14" cy="6.963" r="2.445" fill="#3E3E3E"/><circle cx="14.476" cy="6.963" r="2.445" fill="#3E3E3E"/><circle cx="21.811" cy="6.963" r="2.445" fill="#3E3E3E"/><rect width="29.267" height="29.267" x="17.789" y="18.143" fill="#282828" stroke="#2E2E2E" stroke-width=".827" rx="7.587"/><path fill="#fff" d="M33.9269 37.4795V25.8155H32.3789C32.1089 27.0755 30.9929 27.9755 29.3729 28.0115V29.2535H32.1989V37.4795H33.9269Z"/><rect width="35.286" height="35.286" x="15.076" y="32.437" fill="#2E2E2E" stroke="#3E3E3E" stroke-width=".827" rx="7.587"/><path fill="#fff" d="M29.9609 48.8952C29.9429 48.7152 29.9249 48.5352 29.9249 48.3732C29.9249 47.0412 30.6449 45.9792 32.1749 45.9792C33.6509 45.9792 34.3709 46.9692 34.3709 48.0312C34.3709 48.9312 33.8669 49.7592 32.7689 50.4612L30.8249 51.7212C28.8449 52.9992 28.0889 54.4572 28.0529 56.3652H36.2249V54.7272H30.2309C30.3929 54.0072 30.9869 53.5212 31.6529 53.0892L33.9569 51.6132C35.2889 50.7672 36.1529 49.5432 36.1529 48.0132C36.1529 46.0692 34.7129 44.4312 32.2109 44.4312C29.6549 44.4312 28.1789 46.2132 28.1789 48.2112C28.1789 48.3552 28.1789 48.5172 28.1969 48.6792L29.9609 48.8952Z"/><rect width="35.286" height="35.286" x="15.076" y="78.33" fill="#2E2E2E" stroke="#3E3E3E" stroke-width=".827" rx="7.587"/><path fill="#fff" d="M28.0529 100.345H33.7769V102.973H35.4869V100.345H37.4849V98.7067H35.4869V91.3087H33.0569L28.0529 98.3107V100.345ZM33.7769 98.7067H29.6729L33.7769 93.0007V98.7067Z"/><rect width="40.379" height="40.379" x="12.531" y="52.839" fill="#343434" stroke="#3E3E3E" rx="7.5"/><path fill="#fff" d="M31.7707 73.0615C32.0767 72.9535 32.4367 72.8815 32.7967 72.8815C33.9487 72.8815 35.1727 73.5295 35.1727 75.0595C35.1727 76.2295 34.3087 77.2195 32.7067 77.2195C31.3027 77.2195 30.1867 76.2475 30.1147 74.6995L28.3867 75.0955C28.4947 77.0035 30.0247 78.7675 32.7247 78.7675C35.4427 78.7675 36.9547 76.9855 36.9547 75.0235C36.9547 72.6295 35.0647 71.4775 33.3547 71.4775L36.6847 68.3995V66.8155H28.7647V68.4355H34.3447L30.9067 71.6035L31.7707 73.0615Z"/><rect width="52" height="4" x="60.5" y="29.38" fill="#343434" rx="2"/><rect width="43.5" height="4" x="60.5" y="40.005" fill="#343434" rx="2"/><rect width="43.5" height="4" x="60.5" y="50.63" fill="#343434" rx="2"/><rect width="43.5" height="4" x="60.5" y="61.255" fill="#343434" rx="2"/><rect width="52" height="4" x="60.5" y="75.304" fill="#343434" rx="2"/><rect width="43.5" height="4" x="60.5" y="85.929" fill="#343434" rx="2"/></svg>