<svg xmlns="http://www.w3.org/2000/svg" width="21" height="21" fill="none" viewBox="0 0 21 21"><rect width="2.82" height="2.82" x="17.465" y="17.695" fill="#46E7AA"/><rect width="2.82" height="2.82" x="13.171" y="17.695" fill="#46E7AA"/><rect width="2.82" height="2.82" x="13.171" y=".828" fill="#46E7AA"/><path fill="#46E7AA" fill-rule="evenodd" d="M0.285156 7.2979C0.285156 3.72312 3.18309 0.825195 6.75786 0.825195H11.6109V3.65042H6.75786C4.74341 3.65042 3.11038 5.28345 3.11038 7.2979V16.259H0.285156V7.2979Z" clip-rule="evenodd"/><rect width="2.82" height="2.82" x="8.877" y="17.695" fill="#46E7AA"/><rect width="2.82" height="2.82" x="4.582" y="17.695" fill="#46E7AA"/><rect width="2.82" height="2.82" x=".288" y="17.695" fill="#46E7AA"/><rect width="2.82" height="2.82" x="17.465" y="13.478" fill="#46E7AA"/><rect width="2.82" height="2.82" x="17.465" y="9.261" fill="#46E7AA"/><rect width="2.82" height="2.82" x="17.465" y="5.045" fill="#46E7AA"/><rect width="2.82" height="2.82" x="17.465" y=".828" fill="#46E7AA"/></svg>